<svg width="1070" height="587" viewBox="0 0 1070 587" fill="none" xmlns="http://www.w3.org/2000/svg">
<rect width="1070" height="587" fill="white"/>
<path d="M62.1841 513.619H73.4271C74.135 513.619 74.8037 513.273 75.2408 512.679L81.8957 503.637C82.7497 502.476 84.363 502.374 85.3407 503.417L100.733 519.85C101.166 520.312 101.753 520.571 102.365 520.571H118.565C119.053 520.571 119.528 520.406 119.923 520.1L126.573 514.937C127.535 514.19 128.871 514.346 129.658 515.297L136.874 524.012C137.694 525.003 139.1 525.125 140.06 524.291L164.603 502.949C165.563 502.114 166.969 502.237 167.789 503.227L174.527 511.364C175.491 512.529 177.216 512.46 178.095 511.219L188.231 496.909C188.539 496.476 188.972 496.163 189.464 496.02L205.435 491.37C206.171 491.155 206.76 490.566 207.008 489.796L214.089 467.807C214.315 467.105 214.827 466.549 215.481 466.295L227.029 461.812C227.574 461.601 228.024 461.178 228.289 460.628L232.623 451.656C233.466 449.911 235.79 449.87 236.686 451.583L248.149 473.491C248.716 474.574 249.95 475.037 251.027 474.573L268.253 467.142C268.906 466.861 269.402 466.277 269.601 465.557L282.096 420.284C282.443 419.025 283.656 418.279 284.852 418.589L294.462 421.076C295.46 421.334 296.498 420.858 297.008 419.908L306.06 403.039C306.743 401.768 308.308 401.41 309.419 402.272L314.117 405.92C315.26 406.808 316.877 406.398 317.524 405.058L318.022 404.026C318.787 402.443 320.827 402.225 321.871 403.615L332.588 417.878C333.746 419.421 336.052 418.949 336.593 417.059L347.981 377.27C348.388 375.849 349.873 375.135 351.141 375.75L364.407 382.188C365.623 382.777 367.053 382.146 367.521 380.812L381.398 341.319C381.904 339.879 383.511 339.282 384.746 340.075L405.333 353.291C406.142 353.811 407.166 353.752 407.917 353.142L436.172 330.234C436.503 329.966 436.759 329.607 436.915 329.196L449.076 297.035L460.425 257.311C460.464 257.175 460.491 257.034 460.508 256.892L465.443 213.739" stroke="#F7931A" stroke-width="0.00566934" stroke-linecap="round" stroke-linejoin="round"/>
<path d="M74.9212 505.336H60V538.368C60 539.269 60.5506 540 61.2297 540H491.771C492.449 540 493 539.269 493 538.368V320.825V251.951L476.264 229.574L474.84 229L473.415 229.574L466.314 266.133L452.516 288.367C452.428 288.641 440.524 308.335 440.341 308.508L438.393 307.462L430.437 291.326C430.04 291.704 429.511 291.733 429.091 291.401L419.888 344.344L402.518 388.026C401.867 387.511 400.686 387.09 400.408 388.026L385.919 331.646L369.274 321.596C368.598 321.188 367.805 321.662 367.588 322.604L354.352 380.143C354.063 381.397 352.834 381.71 352.216 380.687L338.144 357.384C337.587 356.461 336.499 356.606 336.091 357.657L334.034 362.954C333.689 363.844 332.827 364.115 332.218 363.526L324.937 356.493C324.345 355.921 323.509 356.158 323.145 357.001L312.348 382.034C312.076 382.664 311.523 382.98 310.991 382.809L298.703 378.851C298.065 378.647 297.418 379.141 297.233 379.977L283.406 442.307C283.3 442.785 283.035 443.173 282.687 443.359L262.756 454.056C262.182 454.364 261.524 454.057 261.221 453.339L247.348 420.35C246.87 419.213 245.63 419.241 245.181 420.398L239.288 435.577C239.147 435.942 238.906 436.223 238.616 436.363L225.294 442.797C224.946 442.966 224.673 443.335 224.552 443.8L216.597 474.537C216.466 475.047 216.151 475.438 215.758 475.58L197.69 482.126C197.428 482.221 197.197 482.429 197.033 482.716L185.061 503.743C184.592 504.566 183.672 504.613 183.158 503.839L174.117 490.254C173.712 489.644 173.03 489.524 172.518 489.972L144.262 514.697C143.842 515.066 143.294 515.056 142.88 514.673L133.54 506.003C133.11 505.604 132.536 505.612 132.112 506.022L123.594 514.249C123.384 514.452 123.131 514.562 122.87 514.562H104.68C104.354 514.562 104.041 514.39 103.81 514.083L86.0502 490.494C85.5288 489.802 84.6684 489.87 84.2129 490.64L75.8885 504.712C75.6554 505.106 75.2987 505.336 74.9212 505.336Z" fill="url(#paint0_linear_118_506)"/>
<path d="M669.049 354.01L494.951 258.5H878.5V465.169L669.056 354.013L669.049 354.01Z" fill="#CA2C31" fill-opacity="0.19" stroke="#CA2C31"/>
<path d="M669.052 160.598L494.927 257.5H878.5V47.837L669.058 160.594L669.052 160.598Z" fill="#0FA958" fill-opacity="0.26" stroke="#0FA958"/>
<path d="M494 257.739L494 540.739" stroke="#858585" stroke-width="2"/>
<line x1="494" y1="154.739" x2="494" y2="257.739" stroke="#858585" stroke-width="2" stroke-dasharray="4 4"/>
<path d="M879 39.2393L879 541.239" stroke="#858585" stroke-width="2"/>
<path d="M495 540.739H60" stroke="#858585" stroke-width="2"/>
<path d="M879 534.739L869 528.966V540.513L879 534.739ZM872.984 533.739H868.974V535.739H872.984V533.739ZM864.964 533.739H860.953V535.739H864.964V533.739ZM856.943 533.739H852.932V535.739H856.943V533.739ZM848.922 533.739H844.911V535.739H848.922V533.739ZM840.901 533.739H836.891V535.739H840.901V533.739ZM832.88 533.739H828.87V535.739H832.88V533.739ZM824.859 533.739H820.849V535.739H824.859V533.739ZM816.839 533.739H812.828V535.739H816.839V533.739ZM808.818 533.739H804.807V535.739H808.818V533.739ZM800.797 533.739H796.786V535.739H800.797V533.739ZM792.776 533.739H788.766V535.739H792.776V533.739ZM784.755 533.739H780.745V535.739H784.755V533.739ZM776.734 533.739H772.724V535.739H776.734V533.739ZM768.714 533.739H764.703V535.739H768.714V533.739ZM760.693 533.739H756.682V535.739H760.693V533.739ZM752.672 533.739H748.661V535.739H752.672V533.739ZM744.651 533.739H740.641V535.739H744.651V533.739ZM736.63 533.739H732.62V535.739H736.63V533.739ZM728.609 533.739H724.599V535.739H728.609V533.739ZM720.589 533.739H716.578V535.739H720.589V533.739ZM712.568 533.739H708.557V535.739H712.568V533.739ZM704.547 533.739H700.536V535.739H704.547V533.739ZM696.526 533.739H692.516V535.739H696.526V533.739ZM688.505 533.739H684.495V535.739H688.505V533.739ZM680.484 533.739H676.474V535.739H680.484V533.739ZM672.463 533.739H668.453V535.739H672.463V533.739ZM664.443 533.739H660.432V535.739H664.443V533.739ZM656.422 533.739H652.411V535.739H656.422V533.739ZM648.401 533.739H644.391V535.739H648.401V533.739ZM640.38 533.739H636.37V535.739H640.38V533.739ZM632.359 533.739H628.349V535.739H632.359V533.739ZM624.338 533.739H620.328V535.739H624.338V533.739ZM616.318 533.739H612.307V535.739H616.318V533.739ZM608.297 533.739H604.286V535.739H608.297V533.739ZM600.276 533.739H596.266V535.739H600.276V533.739ZM592.255 533.739H588.245V535.739H592.255V533.739ZM584.234 533.739H580.224V535.739H584.234V533.739ZM576.214 533.739H572.203V535.739H576.214V533.739ZM568.193 533.739H564.182V535.739H568.193V533.739ZM560.172 533.739H556.161V535.739H560.172V533.739ZM552.151 533.739H548.141V535.739H552.151V533.739ZM544.13 533.739H540.12V535.739H544.13V533.739ZM536.109 533.739H532.099V535.739H536.109V533.739ZM528.089 533.739H524.078V535.739H528.089V533.739ZM520.068 533.739H516.057V535.739H520.068V533.739ZM512.047 533.739H508.037V535.739H512.047V533.739ZM504.026 533.739H500.016V535.739H504.026V533.739ZM496.005 533.739H494V535.739H496.005V533.739Z" fill="#858585"/>
<path d="M535.517 324.616C536.015 323.72 536.059 322.838 535.65 321.969C535.259 321.095 534.321 320.011 532.835 318.717C531.36 317.429 530.267 316.259 529.553 315.206C528.852 314.16 528.455 313.157 528.361 312.199C528.28 311.246 528.505 310.292 529.036 309.336C529.919 307.746 531.335 306.773 533.284 306.417C535.245 306.067 537.272 306.473 539.364 307.635C541.563 308.856 543.029 310.412 543.761 312.305C544.505 314.203 544.386 316.037 543.404 317.806L540.069 315.955C540.573 315.046 540.619 314.048 540.207 312.959C539.807 311.877 539.022 311.01 537.85 310.36C536.643 309.69 535.553 309.428 534.58 309.576C533.606 309.723 532.884 310.222 532.413 311.07C531.968 311.871 531.95 312.651 532.357 313.409C532.765 314.167 533.691 315.189 535.135 316.476C536.591 317.769 537.69 318.958 538.432 320.042C539.175 321.127 539.589 322.17 539.674 323.171C539.778 324.167 539.541 325.185 538.964 326.225C538.001 327.958 536.535 328.966 534.564 329.248C532.6 329.518 530.513 329.039 528.301 327.811C526.747 326.948 525.526 325.91 524.636 324.697C523.746 323.483 523.232 322.197 523.095 320.839C522.976 319.475 523.236 318.219 523.873 317.072L527.19 318.914C526.632 320.058 526.583 321.188 527.043 322.304C527.521 323.414 528.442 324.347 529.805 325.104C531.06 325.801 532.203 326.107 533.235 326.023C534.285 325.934 535.046 325.465 535.517 324.616ZM553.082 318.794C555.555 317.805 557.968 317.965 560.323 319.272C564.423 321.549 565.207 325.01 562.674 329.656L555.556 342.475L552.239 340.633L559.367 327.796C560.131 326.391 560.383 325.178 560.121 324.157C559.871 323.142 559.083 322.266 557.756 321.53C556.68 320.932 555.577 320.695 554.445 320.817C553.314 320.94 552.262 321.341 551.29 322.021L543.615 335.845L540.298 334.003L555.589 306.464L558.906 308.305L553.082 318.794ZM565.129 334.866C566.184 332.965 567.504 331.462 569.088 330.355C570.684 329.255 572.374 328.661 574.159 328.573C575.956 328.492 577.709 328.926 579.418 329.875C582.059 331.342 583.685 333.441 584.295 336.172C584.918 338.91 584.386 341.797 582.7 344.833L582.571 345.066C581.522 346.955 580.215 348.45 578.65 349.551C577.103 350.647 575.422 351.238 573.606 351.325C571.803 351.418 570.029 350.98 568.284 350.011C565.654 348.551 564.028 346.452 563.406 343.714C562.796 340.983 563.327 338.111 565 335.099L565.129 334.866ZM568.245 337.112C567.05 339.263 566.587 341.266 566.856 343.12C567.137 344.98 568.114 346.375 569.787 347.304C571.472 348.24 573.176 348.326 574.898 347.562C576.627 346.786 578.152 345.209 579.473 342.83C580.654 340.702 581.102 338.699 580.816 336.82C580.548 334.936 579.578 333.529 577.905 332.6C576.267 331.691 574.585 331.609 572.857 332.354C571.13 333.1 569.592 334.686 568.245 337.112ZM599.96 345.644C599.504 345.281 598.984 344.938 598.398 344.612C596.223 343.405 594.232 343.511 592.426 344.933L584.781 358.702L581.464 356.861L592.235 337.461L595.463 339.253L594.272 341.524C596.322 340.395 598.345 340.384 600.341 341.493C600.987 341.851 601.43 342.207 601.672 342.56L599.96 345.644ZM612.683 342.669L610.075 347.366L613.697 349.377L612.273 351.941L608.652 349.93L601.971 361.961C601.54 362.738 601.376 363.413 601.48 363.987C601.59 364.549 602.034 365.045 602.811 365.476C603.193 365.689 603.759 365.909 604.508 366.137L603.015 368.827C602.01 368.581 601.095 368.23 600.27 367.772C598.788 366.949 597.919 365.88 597.664 364.565C597.408 363.251 597.739 361.769 598.655 360.119L605.335 348.089L601.802 346.127L603.226 343.564L606.758 345.525L609.366 340.827L612.683 342.669ZM637.578 375.609C635.938 378.562 633.942 380.565 631.59 381.62C629.237 382.675 626.907 382.562 624.6 381.281C622.245 379.974 620.807 378.198 620.286 375.954L615.099 385.295L611.783 383.453L626.696 356.595L629.726 358.278L628.692 360.519C630.972 359.595 633.313 359.801 635.716 361.135C638.047 362.429 639.4 364.329 639.775 366.836C640.162 369.35 639.486 372.173 637.747 375.304L637.578 375.609ZM634.47 373.391C635.684 371.204 636.177 369.218 635.949 367.433C635.72 365.648 634.792 364.304 633.167 363.402C631.159 362.287 629.158 362.341 627.165 363.565L622.018 372.834C622.028 375.154 623.055 376.881 625.099 378.016C626.689 378.899 628.298 378.972 629.928 378.234C631.575 377.492 633.089 375.877 634.47 373.391ZM641.15 377.076C642.205 375.176 643.524 373.672 645.108 372.566C646.704 371.466 648.395 370.872 650.179 370.784C651.976 370.702 653.729 371.136 655.438 372.085C658.08 373.552 659.706 375.651 660.316 378.383C660.938 381.121 660.406 384.008 658.72 387.044L658.591 387.277C657.542 389.165 656.235 390.66 654.67 391.761C653.123 392.857 651.442 393.449 649.627 393.535C647.824 393.629 646.049 393.191 644.304 392.222C641.675 390.762 640.049 388.663 639.427 385.925C638.816 383.193 639.348 380.322 641.02 377.309L641.15 377.076ZM644.265 379.323C643.071 381.474 642.608 383.477 642.876 385.33C643.157 387.191 644.134 388.586 645.808 389.515C647.493 390.45 649.197 390.536 650.919 389.772C652.648 388.997 654.172 387.419 655.493 385.041C656.674 382.913 657.122 380.91 656.836 379.031C656.569 377.147 655.598 375.74 653.925 374.811C652.288 373.901 650.605 373.819 648.878 374.565C647.15 375.31 645.613 376.896 644.265 379.323ZM671.637 400.197C672.135 399.301 672.179 398.418 671.77 397.55C671.379 396.676 670.441 395.592 668.954 394.298C667.48 393.01 666.386 391.84 665.673 390.787C664.972 389.741 664.574 388.738 664.481 387.779C664.4 386.827 664.625 385.873 665.156 384.917C666.038 383.327 667.454 382.354 669.404 381.998C671.365 381.648 673.392 382.054 675.483 383.215C677.683 384.437 679.148 385.993 679.88 387.885C680.625 389.784 680.505 391.618 679.523 393.387L676.188 391.535C676.693 390.627 676.739 389.628 676.327 388.54C675.927 387.457 675.141 386.591 673.97 385.941C672.763 385.27 671.673 385.009 670.699 385.157C669.726 385.304 669.004 385.802 668.532 386.651C668.088 387.452 668.069 388.231 668.477 388.99C668.885 389.748 669.811 390.77 671.255 392.056C672.71 393.35 673.809 394.538 674.552 395.623C675.295 396.708 675.708 397.751 675.794 398.752C675.897 399.748 675.661 400.766 675.083 401.806C674.121 403.539 672.654 404.547 670.684 404.829C668.72 405.099 666.632 404.62 664.421 403.392C662.867 402.529 661.645 401.491 660.755 400.277C659.865 399.064 659.352 397.778 659.215 396.419C659.096 395.056 659.355 393.8 659.993 392.653L663.309 394.494C662.752 395.639 662.703 396.769 663.163 397.885C663.641 398.995 664.562 399.928 665.924 400.685C667.179 401.381 668.323 401.688 669.355 401.604C670.405 401.515 671.166 401.046 671.637 400.197ZM680.021 411.585L676.704 409.743L687.476 390.344L690.793 392.185L680.021 411.585ZM690.064 385.049C690.363 384.511 690.777 384.146 691.305 383.955C691.846 383.77 692.438 383.857 693.084 384.215C693.729 384.574 694.117 385.031 694.246 385.587C694.374 386.144 694.29 386.691 693.991 387.229C693.692 387.767 693.276 388.122 692.742 388.295C692.208 388.468 691.619 388.375 690.973 388.016C690.328 387.658 689.937 387.206 689.802 386.662C689.678 386.124 689.766 385.586 690.064 385.049ZM703.227 392.943L700.618 397.641L704.24 399.652L702.816 402.216L699.195 400.205L692.515 412.235C692.083 413.012 691.92 413.688 692.023 414.261C692.134 414.823 692.577 415.319 693.354 415.751C693.737 415.963 694.302 416.184 695.051 416.412L693.558 419.101C692.553 418.856 691.638 418.504 690.813 418.046C689.331 417.223 688.462 416.154 688.207 414.84C687.952 413.525 688.282 412.043 689.198 410.394L695.878 398.363L692.346 396.402L693.769 393.838L697.301 395.799L699.91 391.102L703.227 392.943ZM700.963 423.213L697.646 421.371L708.418 401.971L711.735 403.813L700.963 423.213ZM711.006 396.676C711.305 396.139 711.718 395.774 712.247 395.583C712.787 395.398 713.38 395.485 714.025 395.843C714.671 396.201 715.058 396.659 715.187 397.215C715.316 397.772 715.231 398.319 714.932 398.857C714.634 399.394 714.218 399.75 713.684 399.923C713.15 400.095 712.56 400.003 711.915 399.644C711.269 399.286 710.879 398.834 710.743 398.29C710.62 397.752 710.707 397.214 711.006 396.676ZM710.895 415.803C711.95 413.902 713.27 412.399 714.854 411.292C716.45 410.192 718.14 409.598 719.925 409.51C721.721 409.429 723.474 409.863 725.183 410.812C727.825 412.278 729.451 414.377 730.061 417.109C730.683 419.847 730.151 422.734 728.466 425.77L728.336 426.003C727.288 427.892 725.981 429.386 724.415 430.488C722.868 431.584 721.187 432.175 719.372 432.262C717.569 432.355 715.795 431.917 714.049 430.948C711.42 429.488 709.794 427.389 709.172 424.651C708.562 421.92 709.093 419.048 710.765 416.036L710.895 415.803ZM714.011 418.049C712.816 420.2 712.353 422.203 712.622 424.057C712.902 425.917 713.879 427.312 715.553 428.241C717.238 429.177 718.942 429.263 720.664 428.499C722.393 427.723 723.918 426.145 725.238 423.767C726.42 421.639 726.867 419.636 726.581 417.757C726.314 415.873 725.344 414.466 723.67 413.537C722.033 412.628 720.35 412.546 718.623 413.291C716.895 414.036 715.358 415.622 714.011 418.049ZM741.139 420.14L739.892 422.638C742.41 421.596 744.864 421.739 747.255 423.067C751.354 425.343 752.138 428.804 749.605 433.45L742.487 446.269L739.17 444.428L746.298 431.59C747.063 430.185 747.314 428.972 747.052 427.951C746.803 426.936 746.014 426.061 744.687 425.324C743.612 424.727 742.508 424.489 741.377 424.612C740.245 424.734 739.194 425.135 738.222 425.816L730.546 439.639L727.229 437.797L738.001 418.398L741.139 420.14Z" fill="#A02422"/>
<path d="M526.985 218.271L523.665 220.107L508.428 192.537L511.748 190.702L526.985 218.271ZM525.971 205.921C524.919 204.019 524.345 202.103 524.247 200.173C524.161 198.237 524.553 196.489 525.425 194.929C526.309 193.363 527.607 192.107 529.318 191.161C531.962 189.699 534.604 189.434 537.243 190.366C539.895 191.29 542.06 193.273 543.74 196.312L543.869 196.545C544.914 198.436 545.488 200.337 545.591 202.248C545.7 204.14 545.31 205.879 544.42 207.464C543.543 209.042 542.231 210.314 540.484 211.28C537.851 212.735 535.209 213 532.558 212.075C529.919 211.144 527.766 209.17 526.1 206.155L525.971 205.921ZM529.528 204.471C530.718 206.625 532.17 208.08 533.884 208.835C535.61 209.584 537.311 209.495 538.986 208.57C540.673 207.637 541.65 206.238 541.915 204.373C542.174 202.496 541.646 200.367 540.33 197.986C539.153 195.856 537.692 194.414 535.947 193.659C534.208 192.887 532.501 192.963 530.826 193.889C529.186 194.795 528.225 196.178 527.94 198.038C527.656 199.898 528.185 202.042 529.528 204.471ZM545.688 182.582L547.145 184.964C547.597 182.277 549.02 180.272 551.413 178.95C555.518 176.681 558.867 177.853 561.463 182.464L568.555 195.297L565.235 197.132L558.132 184.281C557.346 182.887 556.451 182.031 555.447 181.711C554.454 181.385 553.294 181.589 551.966 182.323C550.889 182.918 550.102 183.728 549.606 184.752C549.109 185.776 548.892 186.88 548.953 188.065L556.601 201.904L553.281 203.739L542.547 184.318L545.688 182.582ZM567.317 183.094C565.644 180.067 565.015 177.275 565.43 174.718C565.838 172.149 567.196 170.227 569.506 168.951C571.875 167.641 574.187 167.457 576.441 168.398L575.412 166.155L578.446 164.479L588.921 183.433C590.31 185.946 590.656 188.339 589.961 190.614C589.277 192.882 587.679 194.71 585.166 196.099C583.766 196.873 582.23 197.331 580.56 197.473C578.889 197.615 577.413 197.361 576.131 196.71L576.753 193.766C579.149 194.738 581.376 194.655 583.435 193.518C585.05 192.625 586.055 191.476 586.45 190.07C586.857 188.658 586.604 187.127 585.691 185.475L584.769 183.806C584.287 186.072 582.897 187.839 580.6 189.109C578.326 190.366 575.978 190.469 573.554 189.418C571.142 188.361 569.063 186.253 567.317 183.094ZM570.864 181.626C572.074 183.816 573.475 185.291 575.067 186.051C576.652 186.8 578.253 186.728 579.868 185.835C581.962 184.678 582.974 182.876 582.904 180.432L578.004 171.565C575.961 170.272 573.923 170.188 571.889 171.312C570.274 172.205 569.358 173.531 569.143 175.29C568.928 177.049 569.502 179.161 570.864 181.626ZM614.48 157.521C616.114 160.477 616.754 163.231 616.4 165.786C616.047 168.34 614.715 170.255 612.406 171.531C610.048 172.834 607.78 173.111 605.602 172.363L610.77 181.714L607.449 183.55L592.589 156.662L595.623 154.985L596.975 157.05C597.401 154.627 598.817 152.752 601.222 151.422C603.555 150.133 605.884 149.994 608.208 151.006C610.545 152.011 612.579 154.081 614.312 157.216L614.48 157.521ZM610.952 158.979C609.741 156.789 608.319 155.318 606.685 154.566C605.05 153.813 603.419 153.887 601.792 154.786C599.782 155.897 598.767 157.622 598.747 159.96L603.876 169.24C605.847 170.462 607.856 170.507 609.903 169.377C611.494 168.497 612.409 167.171 612.648 165.399C612.893 163.608 612.327 161.468 610.952 158.979ZM617.619 155.271C616.567 153.369 615.992 151.452 615.894 149.523C615.808 147.586 616.201 145.838 617.073 144.279C617.957 142.712 619.255 141.456 620.966 140.511C623.61 139.049 626.252 138.784 628.891 139.715C631.543 140.64 633.708 142.622 635.388 145.662L635.517 145.895C636.562 147.786 637.136 149.687 637.239 151.598C637.348 153.49 636.957 155.229 636.068 156.814C635.191 158.392 633.879 159.664 632.132 160.63C629.499 162.085 626.857 162.35 624.206 161.425C621.567 160.493 619.414 158.52 617.748 155.504L617.619 155.271ZM621.175 153.821C622.366 155.975 623.818 157.429 625.532 158.185C627.258 158.934 628.959 158.845 630.634 157.919C632.321 156.987 633.298 155.588 633.563 153.723C633.822 151.846 633.294 149.717 631.978 147.335C630.801 145.205 629.34 143.763 627.595 143.009C625.856 142.236 624.149 142.313 622.474 143.239C620.834 144.145 619.873 145.528 619.588 147.388C619.304 149.247 619.833 151.392 621.175 153.821ZM653.389 141.688C652.893 140.79 652.169 140.285 651.216 140.171C650.268 140.039 648.851 140.26 646.965 140.833C645.092 141.4 643.52 141.707 642.249 141.753C640.99 141.793 639.929 141.598 639.067 141.168C638.217 140.732 637.527 140.035 636.998 139.078C636.118 137.487 636.044 135.77 636.776 133.929C637.52 132.08 638.939 130.578 641.033 129.42C643.235 128.203 645.332 127.787 647.324 128.169C649.328 128.546 650.82 129.619 651.799 131.39L648.46 133.235C647.958 132.326 647.136 131.757 645.994 131.529C644.865 131.294 643.713 131.5 642.541 132.149C641.332 132.817 640.532 133.602 640.141 134.506C639.75 135.409 639.789 136.286 640.259 137.135C640.702 137.937 641.353 138.366 642.212 138.422C643.071 138.479 644.429 138.236 646.285 137.694C648.153 137.146 649.744 136.845 651.058 136.791C652.371 136.736 653.475 136.939 654.369 137.398C655.268 137.838 656.006 138.578 656.581 139.619C657.54 141.354 657.616 143.132 656.81 144.952C655.998 146.76 654.484 148.276 652.271 149.5C650.715 150.359 649.187 150.845 647.686 150.956C646.185 151.066 644.823 150.82 643.598 150.215C642.379 149.593 641.452 148.707 640.817 147.558L644.138 145.723C644.813 146.803 645.745 147.444 646.934 147.645C648.129 147.829 649.409 147.543 650.773 146.789C652.029 146.095 652.895 145.288 653.372 144.369C653.853 143.431 653.859 142.537 653.389 141.688ZM667.49 140.62L664.17 142.455L653.437 123.034L656.757 121.199L667.49 140.62ZM650.321 118.031C650.023 117.493 649.933 116.949 650.051 116.399C650.181 115.843 650.569 115.387 651.216 115.029C651.862 114.672 652.455 114.587 652.995 114.772C653.535 114.958 653.954 115.32 654.251 115.859C654.549 116.397 654.629 116.939 654.493 117.483C654.356 118.027 653.965 118.478 653.319 118.835C652.672 119.192 652.083 119.283 651.549 119.11C651.028 118.929 650.618 118.57 650.321 118.031ZM663.994 111.06L666.593 115.763L670.219 113.759L671.638 116.326L668.012 118.329L674.668 130.373C675.098 131.151 675.583 131.648 676.125 131.864C676.66 132.069 677.316 131.956 678.094 131.526C678.476 131.315 678.963 130.952 679.554 130.438L681.042 133.13C680.301 133.852 679.517 134.441 678.692 134.898C677.208 135.718 675.841 135.887 674.591 135.407C673.341 134.926 672.26 133.86 671.347 132.208L664.691 120.165L661.155 122.119L659.737 119.552L663.273 117.598L660.674 112.895L663.994 111.06ZM688.455 129.033L685.134 130.868L674.401 111.448L677.722 109.612L688.455 129.033ZM671.285 106.445C670.987 105.907 670.898 105.363 671.016 104.813C671.146 104.257 671.534 103.8 672.18 103.443C672.826 103.086 673.419 103 673.959 103.186C674.499 103.372 674.918 103.734 675.216 104.273C675.513 104.811 675.594 105.352 675.457 105.897C675.321 106.441 674.929 106.891 674.283 107.248C673.637 107.606 673.047 107.697 672.514 107.523C671.992 107.343 671.583 106.983 671.285 106.445ZM687.441 116.683C686.389 114.781 685.814 112.865 685.716 110.935C685.63 108.999 686.023 107.251 686.895 105.691C687.779 104.124 689.077 102.868 690.788 101.923C693.432 100.461 696.074 100.196 698.713 101.128C701.364 102.052 703.53 104.035 705.21 107.074L705.339 107.307C706.383 109.198 706.958 111.099 707.061 113.01C707.17 114.902 706.779 116.641 705.89 118.226C705.013 119.804 703.701 121.076 701.954 122.042C699.321 123.497 696.679 123.762 694.028 122.837C691.389 121.906 689.236 119.932 687.57 116.917L687.441 116.683ZM690.997 115.233C692.188 117.387 693.64 118.842 695.354 119.597C697.08 120.346 698.78 120.257 700.456 119.331C702.143 118.399 703.119 117 703.385 115.135C703.644 113.258 703.116 111.129 701.8 108.748C700.623 106.618 699.162 105.176 697.417 104.421C695.678 103.649 693.971 103.725 692.296 104.651C690.656 105.557 689.694 106.94 689.41 108.8C689.126 110.66 689.655 112.804 690.997 115.233ZM707.158 93.3441L708.615 95.7256C709.067 93.0389 710.49 91.0342 712.883 89.7116C716.987 87.4433 720.337 88.6146 722.932 93.2256L730.025 106.059L726.704 107.894L719.602 95.0428C718.816 93.6494 717.921 92.7929 716.917 92.4733C715.924 92.1471 714.764 92.351 713.435 93.0851C712.358 93.6803 711.572 94.4899 711.076 95.514C710.579 96.538 710.362 97.6424 710.423 98.827L718.071 112.666L714.75 114.501L704.017 95.08L707.158 93.3441Z" fill="#0FA958"/>
<path d="M613.288 233.65V242H610.476V220.672H618.342C620.676 220.672 622.502 221.268 623.82 222.459C625.148 223.65 625.812 225.228 625.812 227.19C625.812 229.261 625.163 230.857 623.864 231.98C622.575 233.094 620.725 233.65 618.312 233.65H613.288ZM613.288 231.351H618.342C619.846 231.351 620.998 230.999 621.799 230.296C622.6 229.583 623 228.558 623 227.22C623 225.95 622.6 224.935 621.799 224.173C620.998 223.411 619.899 223.016 618.503 222.986H613.288V231.351ZM628.054 233.929C628.054 232.376 628.356 230.979 628.962 229.739C629.577 228.499 630.427 227.542 631.511 226.868C632.604 226.194 633.85 225.857 635.246 225.857C637.404 225.857 639.147 226.604 640.476 228.099C641.813 229.593 642.482 231.58 642.482 234.061V234.251C642.482 235.794 642.185 237.181 641.589 238.411C641.003 239.632 640.158 240.584 639.055 241.268C637.961 241.951 636.701 242.293 635.275 242.293C633.127 242.293 631.384 241.546 630.046 240.052C628.718 238.558 628.054 236.58 628.054 234.119V233.929ZM630.778 234.251C630.778 236.009 631.184 237.42 631.994 238.484C632.814 239.549 633.908 240.081 635.275 240.081C636.652 240.081 637.746 239.544 638.557 238.47C639.367 237.386 639.772 235.872 639.772 233.929C639.772 232.19 639.357 230.784 638.527 229.71C637.707 228.626 636.613 228.084 635.246 228.084C633.908 228.084 632.829 228.616 632.009 229.681C631.188 230.745 630.778 232.269 630.778 234.251ZM649.558 222.312V226.15H652.517V228.245H649.558V238.074C649.558 238.709 649.689 239.188 649.953 239.51C650.217 239.822 650.666 239.979 651.301 239.979C651.613 239.979 652.043 239.92 652.59 239.803V242C651.877 242.195 651.184 242.293 650.51 242.293C649.299 242.293 648.386 241.927 647.771 241.194C647.155 240.462 646.848 239.422 646.848 238.074V228.245H643.962V226.15H646.848V222.312H649.558ZM662.272 242.293C660.124 242.293 658.376 241.59 657.028 240.184C655.681 238.768 655.007 236.878 655.007 234.515V234.017C655.007 232.444 655.305 231.043 655.9 229.812C656.506 228.572 657.346 227.605 658.42 226.912C659.504 226.209 660.676 225.857 661.936 225.857C663.996 225.857 665.598 226.536 666.74 227.894C667.883 229.251 668.454 231.194 668.454 233.724V234.852H657.717C657.756 236.414 658.21 237.679 659.079 238.646C659.958 239.603 661.071 240.081 662.419 240.081C663.376 240.081 664.187 239.886 664.851 239.495C665.515 239.104 666.096 238.587 666.594 237.942L668.249 239.231C666.921 241.272 664.929 242.293 662.272 242.293ZM661.936 228.084C660.842 228.084 659.924 228.484 659.182 229.285C658.439 230.076 657.98 231.189 657.805 232.625H665.744V232.42C665.666 231.043 665.295 229.979 664.631 229.227C663.967 228.465 663.068 228.084 661.936 228.084ZM674.167 226.15L674.255 228.143C675.466 226.619 677.048 225.857 679.001 225.857C682.351 225.857 684.04 227.747 684.069 231.526V242H681.359V231.512C681.35 230.369 681.086 229.524 680.568 228.978C680.061 228.431 679.265 228.157 678.181 228.157C677.302 228.157 676.53 228.392 675.866 228.86C675.202 229.329 674.685 229.944 674.313 230.706V242H671.604V226.15H674.167ZM691.833 222.312V226.15H694.792V228.245H691.833V238.074C691.833 238.709 691.965 239.188 692.229 239.51C692.492 239.822 692.941 239.979 693.576 239.979C693.889 239.979 694.318 239.92 694.865 239.803V242C694.152 242.195 693.459 242.293 692.785 242.293C691.574 242.293 690.661 241.927 690.046 241.194C689.431 240.462 689.123 239.422 689.123 238.074V228.245H686.237V226.15H689.123V222.312H691.833ZM700.915 242H698.205V226.15H700.915V242ZM697.985 221.946C697.985 221.507 698.117 221.136 698.381 220.833C698.654 220.53 699.055 220.379 699.582 220.379C700.109 220.379 700.51 220.53 700.783 220.833C701.057 221.136 701.193 221.507 701.193 221.946C701.193 222.386 701.057 222.752 700.783 223.045C700.51 223.338 700.109 223.484 699.582 223.484C699.055 223.484 698.654 223.338 698.381 223.045C698.117 222.752 697.985 222.386 697.985 221.946ZM715.051 242C714.895 241.688 714.768 241.131 714.67 240.33C713.41 241.639 711.906 242.293 710.158 242.293C708.596 242.293 707.312 241.854 706.306 240.975C705.31 240.086 704.812 238.963 704.812 237.605C704.812 235.955 705.437 234.676 706.687 233.768C707.946 232.85 709.714 232.391 711.989 232.391H714.626V231.146C714.626 230.198 714.343 229.446 713.776 228.89C713.21 228.323 712.375 228.04 711.271 228.04C710.305 228.04 709.494 228.284 708.84 228.772C708.186 229.261 707.858 229.852 707.858 230.545H705.134C705.134 229.754 705.412 228.992 705.969 228.26C706.535 227.518 707.297 226.932 708.254 226.502C709.221 226.072 710.28 225.857 711.433 225.857C713.259 225.857 714.689 226.316 715.725 227.234C716.76 228.143 717.297 229.397 717.336 230.999V238.294C717.336 239.749 717.521 240.906 717.893 241.766V242H715.051ZM710.554 239.935C711.403 239.935 712.209 239.715 712.971 239.275C713.732 238.836 714.284 238.265 714.626 237.562V234.31H712.502C709.182 234.31 707.521 235.281 707.521 237.225C707.521 238.074 707.805 238.738 708.371 239.217C708.938 239.695 709.665 239.935 710.554 239.935ZM724.528 242H721.818V219.5H724.528V242ZM739.265 242H736.555V219.5H739.265V242ZM742.897 233.929C742.897 232.376 743.2 230.979 743.806 229.739C744.421 228.499 745.271 227.542 746.354 226.868C747.448 226.194 748.693 225.857 750.09 225.857C752.248 225.857 753.991 226.604 755.319 228.099C756.657 229.593 757.326 231.58 757.326 234.061V234.251C757.326 235.794 757.028 237.181 756.433 238.411C755.847 239.632 755.002 240.584 753.898 241.268C752.805 241.951 751.545 242.293 750.119 242.293C747.971 242.293 746.228 241.546 744.89 240.052C743.562 238.558 742.897 236.58 742.897 234.119V233.929ZM745.622 234.251C745.622 236.009 746.027 237.42 746.838 238.484C747.658 239.549 748.752 240.081 750.119 240.081C751.496 240.081 752.59 239.544 753.4 238.47C754.211 237.386 754.616 235.872 754.616 233.929C754.616 232.19 754.201 230.784 753.371 229.71C752.551 228.626 751.457 228.084 750.09 228.084C748.752 228.084 747.673 228.616 746.853 229.681C746.032 230.745 745.622 232.269 745.622 234.251ZM763.288 226.15L763.376 228.143C764.587 226.619 766.169 225.857 768.122 225.857C771.472 225.857 773.161 227.747 773.19 231.526V242H770.48V231.512C770.471 230.369 770.207 229.524 769.689 228.978C769.182 228.431 768.386 228.157 767.302 228.157C766.423 228.157 765.651 228.392 764.987 228.86C764.323 229.329 763.806 229.944 763.435 230.706V242H760.725V226.15H763.288ZM776.633 233.943C776.633 231.473 777.204 229.51 778.347 228.055C779.489 226.59 781.003 225.857 782.888 225.857C784.821 225.857 786.33 226.541 787.414 227.908L787.546 226.15H790.021V241.619C790.021 243.67 789.411 245.286 788.19 246.468C786.979 247.649 785.349 248.24 783.298 248.24C782.155 248.24 781.037 247.996 779.943 247.508C778.85 247.02 778.015 246.351 777.438 245.501L778.845 243.875C780.007 245.311 781.428 246.028 783.107 246.028C784.426 246.028 785.451 245.657 786.184 244.915C786.926 244.173 787.297 243.128 787.297 241.78V240.418C786.213 241.668 784.733 242.293 782.858 242.293C781.003 242.293 779.499 241.546 778.347 240.052C777.204 238.558 776.633 236.521 776.633 233.943ZM779.357 234.251C779.357 236.038 779.724 237.444 780.456 238.47C781.188 239.485 782.214 239.993 783.532 239.993C785.241 239.993 786.496 239.217 787.297 237.664V230.428C786.467 228.914 785.222 228.157 783.562 228.157C782.243 228.157 781.213 228.67 780.471 229.695C779.729 230.721 779.357 232.239 779.357 234.251ZM814.953 234.251C814.953 236.663 814.401 238.606 813.298 240.081C812.194 241.556 810.7 242.293 808.815 242.293C806.892 242.293 805.378 241.683 804.274 240.462V248.094H801.564V226.15H804.04L804.172 227.908C805.275 226.541 806.809 225.857 808.771 225.857C810.676 225.857 812.18 226.575 813.283 228.011C814.396 229.446 814.953 231.443 814.953 234.002V234.251ZM812.243 233.943C812.243 232.156 811.862 230.745 811.101 229.71C810.339 228.675 809.294 228.157 807.966 228.157C806.325 228.157 805.095 228.885 804.274 230.34V237.913C805.085 239.358 806.325 240.081 807.995 240.081C809.294 240.081 810.324 239.568 811.086 238.543C811.857 237.508 812.243 235.975 812.243 233.943ZM826.071 228.582C825.661 228.514 825.217 228.479 824.738 228.479C822.961 228.479 821.755 229.236 821.12 230.75V242H818.41V226.15H821.047L821.091 227.981C821.979 226.565 823.239 225.857 824.87 225.857C825.397 225.857 825.798 225.926 826.071 226.062V228.582ZM827.565 233.929C827.565 232.376 827.868 230.979 828.474 229.739C829.089 228.499 829.938 227.542 831.022 226.868C832.116 226.194 833.361 225.857 834.758 225.857C836.916 225.857 838.659 226.604 839.987 228.099C841.325 229.593 841.994 231.58 841.994 234.061V234.251C841.994 235.794 841.696 237.181 841.101 238.411C840.515 239.632 839.67 240.584 838.566 241.268C837.473 241.951 836.213 242.293 834.787 242.293C832.639 242.293 830.896 241.546 829.558 240.052C828.229 238.558 827.565 236.58 827.565 234.119V233.929ZM830.29 234.251C830.29 236.009 830.695 237.42 831.506 238.484C832.326 239.549 833.42 240.081 834.787 240.081C836.164 240.081 837.258 239.544 838.068 238.47C838.879 237.386 839.284 235.872 839.284 233.929C839.284 232.19 838.869 230.784 838.039 229.71C837.219 228.626 836.125 228.084 834.758 228.084C833.42 228.084 832.341 228.616 831.521 229.681C830.7 230.745 830.29 232.269 830.29 234.251ZM846.301 242V228.245H843.796V226.15H846.301V224.803C846.301 223.035 846.804 221.658 847.81 220.672C848.825 219.686 850.256 219.192 852.102 219.192C853.195 219.192 854.577 219.49 856.247 220.086L855.793 222.371C854.572 221.883 853.41 221.639 852.307 221.639C851.145 221.639 850.305 221.902 849.787 222.43C849.279 222.947 849.025 223.729 849.025 224.773V226.15H852.263V228.245H849.025V242H846.301ZM857.595 242H854.87V226.15H857.595V242ZM865.681 222.312V226.15H868.64V228.245H865.681V238.074C865.681 238.709 865.812 239.188 866.076 239.51C866.34 239.822 866.789 239.979 867.424 239.979C867.736 239.979 868.166 239.92 868.713 239.803V242C868 242.195 867.307 242.293 866.633 242.293C865.422 242.293 864.509 241.927 863.894 241.194C863.278 240.462 862.971 239.422 862.971 238.074V228.245H860.085V226.15H862.971V222.312H865.681Z" fill="#0FA958"/>
<path d="M601.288 285.65V294H598.476V272.672H606.342C608.676 272.672 610.502 273.268 611.82 274.459C613.148 275.65 613.812 277.228 613.812 279.19C613.812 281.261 613.163 282.857 611.864 283.98C610.575 285.094 608.725 285.65 606.312 285.65H601.288ZM601.288 283.351H606.342C607.846 283.351 608.998 282.999 609.799 282.296C610.6 281.583 611 280.558 611 279.22C611 277.95 610.6 276.935 609.799 276.173C608.998 275.411 607.899 275.016 606.503 274.986H601.288V283.351ZM616.054 285.929C616.054 284.376 616.356 282.979 616.962 281.739C617.577 280.499 618.427 279.542 619.511 278.868C620.604 278.194 621.85 277.857 623.246 277.857C625.404 277.857 627.147 278.604 628.476 280.099C629.813 281.593 630.482 283.58 630.482 286.061V286.251C630.482 287.794 630.185 289.181 629.589 290.411C629.003 291.632 628.158 292.584 627.055 293.268C625.961 293.951 624.701 294.293 623.275 294.293C621.127 294.293 619.384 293.546 618.046 292.052C616.718 290.558 616.054 288.58 616.054 286.119V285.929ZM618.778 286.251C618.778 288.009 619.184 289.42 619.994 290.484C620.814 291.549 621.908 292.081 623.275 292.081C624.652 292.081 625.746 291.544 626.557 290.47C627.367 289.386 627.772 287.872 627.772 285.929C627.772 284.19 627.357 282.784 626.527 281.71C625.707 280.626 624.613 280.084 623.246 280.084C621.908 280.084 620.829 280.616 620.009 281.681C619.188 282.745 618.778 284.269 618.778 286.251ZM637.558 274.312V278.15H640.517V280.245H637.558V290.074C637.558 290.709 637.689 291.188 637.953 291.51C638.217 291.822 638.666 291.979 639.301 291.979C639.613 291.979 640.043 291.92 640.59 291.803V294C639.877 294.195 639.184 294.293 638.51 294.293C637.299 294.293 636.386 293.927 635.771 293.194C635.155 292.462 634.848 291.422 634.848 290.074V280.245H631.962V278.15H634.848V274.312H637.558ZM650.272 294.293C648.124 294.293 646.376 293.59 645.028 292.184C643.681 290.768 643.007 288.878 643.007 286.515V286.017C643.007 284.444 643.305 283.043 643.9 281.812C644.506 280.572 645.346 279.605 646.42 278.912C647.504 278.209 648.676 277.857 649.936 277.857C651.996 277.857 653.598 278.536 654.74 279.894C655.883 281.251 656.454 283.194 656.454 285.724V286.852H645.717C645.756 288.414 646.21 289.679 647.079 290.646C647.958 291.603 649.071 292.081 650.419 292.081C651.376 292.081 652.187 291.886 652.851 291.495C653.515 291.104 654.096 290.587 654.594 289.942L656.249 291.231C654.921 293.272 652.929 294.293 650.272 294.293ZM649.936 280.084C648.842 280.084 647.924 280.484 647.182 281.285C646.439 282.076 645.98 283.189 645.805 284.625H653.744V284.42C653.666 283.043 653.295 281.979 652.631 281.227C651.967 280.465 651.068 280.084 649.936 280.084ZM662.167 278.15L662.255 280.143C663.466 278.619 665.048 277.857 667.001 277.857C670.351 277.857 672.04 279.747 672.069 283.526V294H669.359V283.512C669.35 282.369 669.086 281.524 668.568 280.978C668.061 280.431 667.265 280.157 666.181 280.157C665.302 280.157 664.53 280.392 663.866 280.86C663.202 281.329 662.685 281.944 662.313 282.706V294H659.604V278.15H662.167ZM679.833 274.312V278.15H682.792V280.245H679.833V290.074C679.833 290.709 679.965 291.188 680.229 291.51C680.492 291.822 680.941 291.979 681.576 291.979C681.889 291.979 682.318 291.92 682.865 291.803V294C682.152 294.195 681.459 294.293 680.785 294.293C679.574 294.293 678.661 293.927 678.046 293.194C677.431 292.462 677.123 291.422 677.123 290.074V280.245H674.237V278.15H677.123V274.312H679.833ZM688.915 294H686.205V278.15H688.915V294ZM685.985 273.946C685.985 273.507 686.117 273.136 686.381 272.833C686.654 272.53 687.055 272.379 687.582 272.379C688.109 272.379 688.51 272.53 688.783 272.833C689.057 273.136 689.193 273.507 689.193 273.946C689.193 274.386 689.057 274.752 688.783 275.045C688.51 275.338 688.109 275.484 687.582 275.484C687.055 275.484 686.654 275.338 686.381 275.045C686.117 274.752 685.985 274.386 685.985 273.946ZM703.051 294C702.895 293.688 702.768 293.131 702.67 292.33C701.41 293.639 699.906 294.293 698.158 294.293C696.596 294.293 695.312 293.854 694.306 292.975C693.31 292.086 692.812 290.963 692.812 289.605C692.812 287.955 693.437 286.676 694.687 285.768C695.946 284.85 697.714 284.391 699.989 284.391H702.626V283.146C702.626 282.198 702.343 281.446 701.776 280.89C701.21 280.323 700.375 280.04 699.271 280.04C698.305 280.04 697.494 280.284 696.84 280.772C696.186 281.261 695.858 281.852 695.858 282.545H693.134C693.134 281.754 693.412 280.992 693.969 280.26C694.535 279.518 695.297 278.932 696.254 278.502C697.221 278.072 698.28 277.857 699.433 277.857C701.259 277.857 702.689 278.316 703.725 279.234C704.76 280.143 705.297 281.397 705.336 282.999V290.294C705.336 291.749 705.521 292.906 705.893 293.766V294H703.051ZM698.554 291.935C699.403 291.935 700.209 291.715 700.971 291.275C701.732 290.836 702.284 290.265 702.626 289.562V286.31H700.502C697.182 286.31 695.521 287.281 695.521 289.225C695.521 290.074 695.805 290.738 696.371 291.217C696.938 291.695 697.665 291.935 698.554 291.935ZM712.528 294H709.818V271.5H712.528V294ZM733.549 289.796C733.549 289.063 733.271 288.497 732.714 288.097C732.167 287.687 731.205 287.335 729.828 287.042C728.461 286.749 727.372 286.397 726.562 285.987C725.761 285.577 725.165 285.089 724.774 284.522C724.394 283.956 724.203 283.282 724.203 282.501C724.203 281.202 724.75 280.104 725.844 279.205C726.947 278.307 728.354 277.857 730.062 277.857C731.859 277.857 733.314 278.321 734.428 279.249C735.551 280.177 736.112 281.363 736.112 282.809H733.388C733.388 282.066 733.07 281.427 732.436 280.89C731.811 280.353 731.02 280.084 730.062 280.084C729.076 280.084 728.305 280.299 727.748 280.729C727.191 281.158 726.913 281.72 726.913 282.413C726.913 283.067 727.172 283.561 727.689 283.893C728.207 284.225 729.14 284.542 730.487 284.845C731.845 285.147 732.943 285.509 733.783 285.929C734.623 286.349 735.243 286.856 735.644 287.452C736.054 288.038 736.259 288.756 736.259 289.605C736.259 291.021 735.692 292.159 734.56 293.019C733.427 293.868 731.957 294.293 730.15 294.293C728.881 294.293 727.758 294.068 726.781 293.619C725.805 293.17 725.038 292.545 724.481 291.744C723.935 290.934 723.661 290.06 723.661 289.122H726.371C726.42 290.03 726.781 290.753 727.455 291.29C728.139 291.817 729.037 292.081 730.15 292.081C731.176 292.081 731.996 291.876 732.611 291.466C733.236 291.046 733.549 290.489 733.549 289.796ZM742.499 280.069C743.7 278.595 745.263 277.857 747.187 277.857C750.536 277.857 752.226 279.747 752.255 283.526V294H749.545V283.512C749.535 282.369 749.271 281.524 748.754 280.978C748.246 280.431 747.45 280.157 746.366 280.157C745.487 280.157 744.716 280.392 744.052 280.86C743.388 281.329 742.87 281.944 742.499 282.706V294H739.789V271.5H742.499V280.069ZM755.595 285.929C755.595 284.376 755.897 282.979 756.503 281.739C757.118 280.499 757.968 279.542 759.052 278.868C760.146 278.194 761.391 277.857 762.787 277.857C764.945 277.857 766.688 278.604 768.017 280.099C769.354 281.593 770.023 283.58 770.023 286.061V286.251C770.023 287.794 769.726 289.181 769.13 290.411C768.544 291.632 767.699 292.584 766.596 293.268C765.502 293.951 764.242 294.293 762.816 294.293C760.668 294.293 758.925 293.546 757.587 292.052C756.259 290.558 755.595 288.58 755.595 286.119V285.929ZM758.319 286.251C758.319 288.009 758.725 289.42 759.535 290.484C760.355 291.549 761.449 292.081 762.816 292.081C764.193 292.081 765.287 291.544 766.098 290.47C766.908 289.386 767.313 287.872 767.313 285.929C767.313 284.19 766.898 282.784 766.068 281.71C765.248 280.626 764.154 280.084 762.787 280.084C761.449 280.084 760.37 280.616 759.55 281.681C758.729 282.745 758.319 284.269 758.319 286.251ZM781.083 280.582C780.673 280.514 780.229 280.479 779.75 280.479C777.973 280.479 776.767 281.236 776.132 282.75V294H773.422V278.15H776.059L776.103 279.981C776.991 278.565 778.251 277.857 779.882 277.857C780.409 277.857 780.81 277.926 781.083 278.062V280.582ZM787.997 274.312V278.15H790.956V280.245H787.997V290.074C787.997 290.709 788.129 291.188 788.393 291.51C788.656 291.822 789.105 291.979 789.74 291.979C790.053 291.979 790.482 291.92 791.029 291.803V294C790.316 294.195 789.623 294.293 788.949 294.293C787.738 294.293 786.825 293.927 786.21 293.194C785.595 292.462 785.287 291.422 785.287 290.074V280.245H782.401V278.15H785.287V274.312H787.997ZM814.965 286.251C814.965 288.663 814.413 290.606 813.31 292.081C812.206 293.556 810.712 294.293 808.827 294.293C806.903 294.293 805.39 293.683 804.286 292.462V300.094H801.576V278.15H804.052L804.184 279.908C805.287 278.541 806.82 277.857 808.783 277.857C810.688 277.857 812.191 278.575 813.295 280.011C814.408 281.446 814.965 283.443 814.965 286.002V286.251ZM812.255 285.943C812.255 284.156 811.874 282.745 811.112 281.71C810.351 280.675 809.306 280.157 807.978 280.157C806.337 280.157 805.106 280.885 804.286 282.34V289.913C805.097 291.358 806.337 292.081 808.007 292.081C809.306 292.081 810.336 291.568 811.098 290.543C811.869 289.508 812.255 287.975 812.255 285.943ZM826.083 280.582C825.673 280.514 825.229 280.479 824.75 280.479C822.973 280.479 821.767 281.236 821.132 282.75V294H818.422V278.15H821.059L821.103 279.981C821.991 278.565 823.251 277.857 824.882 277.857C825.409 277.857 825.81 277.926 826.083 278.062V280.582ZM827.577 285.929C827.577 284.376 827.88 282.979 828.485 281.739C829.101 280.499 829.95 279.542 831.034 278.868C832.128 278.194 833.373 277.857 834.77 277.857C836.928 277.857 838.671 278.604 839.999 280.099C841.337 281.593 842.006 283.58 842.006 286.061V286.251C842.006 287.794 841.708 289.181 841.112 290.411C840.526 291.632 839.682 292.584 838.578 293.268C837.484 293.951 836.225 294.293 834.799 294.293C832.65 294.293 830.907 293.546 829.569 292.052C828.241 290.558 827.577 288.58 827.577 286.119V285.929ZM830.302 286.251C830.302 288.009 830.707 289.42 831.518 290.484C832.338 291.549 833.432 292.081 834.799 292.081C836.176 292.081 837.27 291.544 838.08 290.47C838.891 289.386 839.296 287.872 839.296 285.929C839.296 284.19 838.881 282.784 838.051 281.71C837.23 280.626 836.137 280.084 834.77 280.084C833.432 280.084 832.353 280.616 831.532 281.681C830.712 282.745 830.302 284.269 830.302 286.251ZM846.312 294V280.245H843.808V278.15H846.312V276.803C846.312 275.035 846.815 273.658 847.821 272.672C848.837 271.686 850.268 271.192 852.113 271.192C853.207 271.192 854.589 271.49 856.259 272.086L855.805 274.371C854.584 273.883 853.422 273.639 852.318 273.639C851.156 273.639 850.316 273.902 849.799 274.43C849.291 274.947 849.037 275.729 849.037 276.773V278.15H852.274V280.245H849.037V294H846.312ZM857.606 294H854.882V278.15H857.606V294ZM865.692 274.312V278.15H868.651V280.245H865.692V290.074C865.692 290.709 865.824 291.188 866.088 291.51C866.352 291.822 866.801 291.979 867.436 291.979C867.748 291.979 868.178 291.92 868.725 291.803V294C868.012 294.195 867.318 294.293 866.645 294.293C865.434 294.293 864.521 293.927 863.905 293.194C863.29 292.462 862.982 291.422 862.982 290.074V280.245H860.097V278.15H862.982V274.312H865.692Z" fill="#A02422"/>
<circle cx="493.5" cy="257.5" r="7.5" fill="white" stroke="#858585" stroke-width="2"/>
<circle cx="878.5" cy="465.5" r="7.5" fill="white" stroke="#8D9998" stroke-width="2"/>
<circle cx="878.5" cy="46.5" r="7.5" fill="white" stroke="#858585" stroke-width="2"/>
<path d="M263.727 144.465C264.5 144.465 265.176 144.23 265.754 143.762C266.332 143.293 266.652 142.707 266.715 142.004H268.766C268.727 142.73 268.477 143.422 268.016 144.078C267.555 144.734 266.938 145.258 266.164 145.648C265.398 146.039 264.586 146.234 263.727 146.234C262 146.234 260.625 145.66 259.602 144.512C258.586 143.355 258.078 141.777 258.078 139.777V139.414C258.078 138.18 258.305 137.082 258.758 136.121C259.211 135.16 259.859 134.414 260.703 133.883C261.555 133.352 262.559 133.086 263.715 133.086C265.137 133.086 266.316 133.512 267.254 134.363C268.199 135.215 268.703 136.32 268.766 137.68H266.715C266.652 136.859 266.34 136.188 265.777 135.664C265.223 135.133 264.535 134.867 263.715 134.867C262.613 134.867 261.758 135.266 261.148 136.062C260.547 136.852 260.246 137.996 260.246 139.496V139.906C260.246 141.367 260.547 142.492 261.148 143.281C261.75 144.07 262.609 144.465 263.727 144.465ZM279.031 144.746C278.188 145.738 276.949 146.234 275.316 146.234C273.965 146.234 272.934 145.844 272.223 145.062C271.52 144.273 271.164 143.109 271.156 141.57V133.32H273.324V141.512C273.324 143.434 274.105 144.395 275.668 144.395C277.324 144.395 278.426 143.777 278.973 142.543V133.32H281.141V146H279.078L279.031 144.746ZM290.574 135.266C290.246 135.211 289.891 135.184 289.508 135.184C288.086 135.184 287.121 135.789 286.613 137V146H284.445V133.32H286.555L286.59 134.785C287.301 133.652 288.309 133.086 289.613 133.086C290.035 133.086 290.355 133.141 290.574 133.25V135.266ZM298.707 135.266C298.379 135.211 298.023 135.184 297.641 135.184C296.219 135.184 295.254 135.789 294.746 137V146H292.578V133.32H294.688L294.723 134.785C295.434 133.652 296.441 133.086 297.746 133.086C298.168 133.086 298.488 133.141 298.707 133.25V135.266ZM305.738 146.234C304.02 146.234 302.621 145.672 301.543 144.547C300.465 143.414 299.926 141.902 299.926 140.012V139.613C299.926 138.355 300.164 137.234 300.641 136.25C301.125 135.258 301.797 134.484 302.656 133.93C303.523 133.367 304.461 133.086 305.469 133.086C307.117 133.086 308.398 133.629 309.312 134.715C310.227 135.801 310.684 137.355 310.684 139.379V140.281H302.094C302.125 141.531 302.488 142.543 303.184 143.316C303.887 144.082 304.777 144.465 305.855 144.465C306.621 144.465 307.27 144.309 307.801 143.996C308.332 143.684 308.797 143.27 309.195 142.754L310.52 143.785C309.457 145.418 307.863 146.234 305.738 146.234ZM305.469 134.867C304.594 134.867 303.859 135.188 303.266 135.828C302.672 136.461 302.305 137.352 302.164 138.5H308.516V138.336C308.453 137.234 308.156 136.383 307.625 135.781C307.094 135.172 306.375 134.867 305.469 134.867ZM315.254 133.32L315.324 134.914C316.293 133.695 317.559 133.086 319.121 133.086C321.801 133.086 323.152 134.598 323.176 137.621V146H321.008V137.609C321 136.695 320.789 136.02 320.375 135.582C319.969 135.145 319.332 134.926 318.465 134.926C317.762 134.926 317.145 135.113 316.613 135.488C316.082 135.863 315.668 136.355 315.371 136.965V146H313.203V133.32H315.254ZM329.387 130.25V133.32H331.754V134.996H329.387V142.859C329.387 143.367 329.492 143.75 329.703 144.008C329.914 144.258 330.273 144.383 330.781 144.383C331.031 144.383 331.375 144.336 331.812 144.242V146C331.242 146.156 330.688 146.234 330.148 146.234C329.18 146.234 328.449 145.941 327.957 145.355C327.465 144.77 327.219 143.938 327.219 142.859V134.996H324.91V133.32H327.219V130.25H329.387ZM340.59 146V128.938H346.168C348.02 128.938 349.41 129.32 350.34 130.086C351.277 130.852 351.746 131.984 351.746 133.484C351.746 134.281 351.52 134.988 351.066 135.605C350.613 136.215 349.996 136.688 349.215 137.023C350.137 137.281 350.863 137.773 351.395 138.5C351.934 139.219 352.203 140.078 352.203 141.078C352.203 142.609 351.707 143.812 350.715 144.688C349.723 145.562 348.32 146 346.508 146H340.59ZM342.84 138.02V144.16H346.555C347.602 144.16 348.426 143.891 349.027 143.352C349.637 142.805 349.941 142.055 349.941 141.102C349.941 139.047 348.824 138.02 346.59 138.02H342.84ZM342.84 136.215H346.238C347.223 136.215 348.008 135.969 348.594 135.477C349.188 134.984 349.484 134.316 349.484 133.473C349.484 132.535 349.211 131.855 348.664 131.434C348.117 131.004 347.285 130.789 346.168 130.789H342.84V136.215ZM367.004 130.789H361.52V146H359.281V130.789H353.809V128.938H367.004V130.789ZM381.758 140.586C381.547 142.391 380.879 143.785 379.754 144.77C378.637 145.746 377.148 146.234 375.289 146.234C373.273 146.234 371.656 145.512 370.438 144.066C369.227 142.621 368.621 140.688 368.621 138.266V136.625C368.621 135.039 368.902 133.645 369.465 132.441C370.035 131.238 370.84 130.316 371.879 129.676C372.918 129.027 374.121 128.703 375.488 128.703C377.301 128.703 378.754 129.211 379.848 130.227C380.941 131.234 381.578 132.633 381.758 134.422H379.496C379.301 133.062 378.875 132.078 378.219 131.469C377.57 130.859 376.66 130.555 375.488 130.555C374.051 130.555 372.922 131.086 372.102 132.148C371.289 133.211 370.883 134.723 370.883 136.684V138.336C370.883 140.188 371.27 141.66 372.043 142.754C372.816 143.848 373.898 144.395 375.289 144.395C376.539 144.395 377.496 144.113 378.16 143.551C378.832 142.98 379.277 141.992 379.496 140.586H381.758ZM384.934 147.465H383.07L390.195 128.938H392.047L384.934 147.465ZM406.742 128.938V140.539C406.734 142.148 406.227 143.465 405.219 144.488C404.219 145.512 402.859 146.086 401.141 146.211L400.543 146.234C398.676 146.234 397.188 145.73 396.078 144.723C394.969 143.715 394.406 142.328 394.391 140.562V128.938H396.617V140.492C396.617 141.727 396.957 142.688 397.637 143.375C398.316 144.055 399.285 144.395 400.543 144.395C401.816 144.395 402.789 144.055 403.461 143.375C404.141 142.695 404.48 141.738 404.48 140.504V128.938H406.742ZM415.32 138.395C413.391 137.84 411.984 137.16 411.102 136.355C410.227 135.543 409.789 134.543 409.789 133.355C409.789 132.012 410.324 130.902 411.395 130.027C412.473 129.145 413.871 128.703 415.59 128.703C416.762 128.703 417.805 128.93 418.719 129.383C419.641 129.836 420.352 130.461 420.852 131.258C421.359 132.055 421.613 132.926 421.613 133.871H419.352C419.352 132.84 419.023 132.031 418.367 131.445C417.711 130.852 416.785 130.555 415.59 130.555C414.48 130.555 413.613 130.801 412.988 131.293C412.371 131.777 412.062 132.453 412.062 133.32C412.062 134.016 412.355 134.605 412.941 135.09C413.535 135.566 414.539 136.004 415.953 136.402C417.375 136.801 418.484 137.242 419.281 137.727C420.086 138.203 420.68 138.762 421.062 139.402C421.453 140.043 421.648 140.797 421.648 141.664C421.648 143.047 421.109 144.156 420.031 144.992C418.953 145.82 417.512 146.234 415.707 146.234C414.535 146.234 413.441 146.012 412.426 145.566C411.41 145.113 410.625 144.496 410.07 143.715C409.523 142.934 409.25 142.047 409.25 141.055H411.512C411.512 142.086 411.891 142.902 412.648 143.504C413.414 144.098 414.434 144.395 415.707 144.395C416.895 144.395 417.805 144.152 418.438 143.668C419.07 143.184 419.387 142.523 419.387 141.688C419.387 140.852 419.094 140.207 418.508 139.754C417.922 139.293 416.859 138.84 415.32 138.395ZM424.543 146V128.938H429.359C430.844 128.938 432.156 129.266 433.297 129.922C434.438 130.578 435.316 131.512 435.934 132.723C436.559 133.934 436.875 135.324 436.883 136.895V137.984C436.883 139.594 436.57 141.004 435.945 142.215C435.328 143.426 434.441 144.355 433.285 145.004C432.137 145.652 430.797 145.984 429.266 146H424.543ZM426.793 130.789V144.16H429.16C430.895 144.16 432.242 143.621 433.203 142.543C434.172 141.465 434.656 139.93 434.656 137.938V136.941C434.656 135.004 434.199 133.5 433.285 132.43C432.379 131.352 431.09 130.805 429.418 130.789H426.793ZM456.617 139.801C456.617 141.73 456.176 143.285 455.293 144.465C454.41 145.645 453.215 146.234 451.707 146.234C450.168 146.234 448.957 145.746 448.074 144.77V150.875H445.906V133.32H447.887L447.992 134.727C448.875 133.633 450.102 133.086 451.672 133.086C453.195 133.086 454.398 133.66 455.281 134.809C456.172 135.957 456.617 137.555 456.617 139.602V139.801ZM454.449 139.555C454.449 138.125 454.145 136.996 453.535 136.168C452.926 135.34 452.09 134.926 451.027 134.926C449.715 134.926 448.73 135.508 448.074 136.672V142.73C448.723 143.887 449.715 144.465 451.051 144.465C452.09 144.465 452.914 144.055 453.523 143.234C454.141 142.406 454.449 141.18 454.449 139.555ZM465.512 135.266C465.184 135.211 464.828 135.184 464.445 135.184C463.023 135.184 462.059 135.789 461.551 137V146H459.383V133.32H461.492L461.527 134.785C462.238 133.652 463.246 133.086 464.551 133.086C464.973 133.086 465.293 133.141 465.512 133.25V135.266ZM469.871 146H467.703V133.32H469.871V146ZM467.527 129.957C467.527 129.605 467.633 129.309 467.844 129.066C468.062 128.824 468.383 128.703 468.805 128.703C469.227 128.703 469.547 128.824 469.766 129.066C469.984 129.309 470.094 129.605 470.094 129.957C470.094 130.309 469.984 130.602 469.766 130.836C469.547 131.07 469.227 131.188 468.805 131.188C468.383 131.188 468.062 131.07 467.844 130.836C467.633 130.602 467.527 130.309 467.527 129.957ZM478.438 144.465C479.211 144.465 479.887 144.23 480.465 143.762C481.043 143.293 481.363 142.707 481.426 142.004H483.477C483.438 142.73 483.188 143.422 482.727 144.078C482.266 144.734 481.648 145.258 480.875 145.648C480.109 146.039 479.297 146.234 478.438 146.234C476.711 146.234 475.336 145.66 474.312 144.512C473.297 143.355 472.789 141.777 472.789 139.777V139.414C472.789 138.18 473.016 137.082 473.469 136.121C473.922 135.16 474.57 134.414 475.414 133.883C476.266 133.352 477.27 133.086 478.426 133.086C479.848 133.086 481.027 133.512 481.965 134.363C482.91 135.215 483.414 136.32 483.477 137.68H481.426C481.363 136.859 481.051 136.188 480.488 135.664C479.934 135.133 479.246 134.867 478.426 134.867C477.324 134.867 476.469 135.266 475.859 136.062C475.258 136.852 474.957 137.996 474.957 139.496V139.906C474.957 141.367 475.258 142.492 475.859 143.281C476.461 144.07 477.32 144.465 478.438 144.465ZM491.176 146.234C489.457 146.234 488.059 145.672 486.98 144.547C485.902 143.414 485.363 141.902 485.363 140.012V139.613C485.363 138.355 485.602 137.234 486.078 136.25C486.562 135.258 487.234 134.484 488.094 133.93C488.961 133.367 489.898 133.086 490.906 133.086C492.555 133.086 493.836 133.629 494.75 134.715C495.664 135.801 496.121 137.355 496.121 139.379V140.281H487.531C487.562 141.531 487.926 142.543 488.621 143.316C489.324 144.082 490.215 144.465 491.293 144.465C492.059 144.465 492.707 144.309 493.238 143.996C493.77 143.684 494.234 143.27 494.633 142.754L495.957 143.785C494.895 145.418 493.301 146.234 491.176 146.234ZM490.906 134.867C490.031 134.867 489.297 135.188 488.703 135.828C488.109 136.461 487.742 137.352 487.602 138.5H493.953V138.336C493.891 137.234 493.594 136.383 493.062 135.781C492.531 135.172 491.812 134.867 490.906 134.867Z" fill="#858585"/>
<path d="M908.352 48.8008C908.352 50.7305 907.91 52.2852 907.027 53.4648C906.145 54.6445 904.949 55.2344 903.441 55.2344C901.902 55.2344 900.691 54.7461 899.809 53.7695V59.875H897.641V42.3203H899.621L899.727 43.7266C900.609 42.6328 901.836 42.0859 903.406 42.0859C904.93 42.0859 906.133 42.6602 907.016 43.8086C907.906 44.957 908.352 46.5547 908.352 48.6016V48.8008ZM906.184 48.5547C906.184 47.125 905.879 45.9961 905.27 45.168C904.66 44.3398 903.824 43.9258 902.762 43.9258C901.449 43.9258 900.465 44.5078 899.809 45.6719V51.7305C900.457 52.8867 901.449 53.4648 902.785 53.4648C903.824 53.4648 904.648 53.0547 905.258 52.2344C905.875 51.4062 906.184 50.1797 906.184 48.5547ZM917.246 44.2656C916.918 44.2109 916.562 44.1836 916.18 44.1836C914.758 44.1836 913.793 44.7891 913.285 46V55H911.117V42.3203H913.227L913.262 43.7852C913.973 42.6523 914.98 42.0859 916.285 42.0859C916.707 42.0859 917.027 42.1406 917.246 42.25V44.2656ZM921.605 55H919.438V42.3203H921.605V55ZM919.262 38.957C919.262 38.6055 919.367 38.3086 919.578 38.0664C919.797 37.8242 920.117 37.7031 920.539 37.7031C920.961 37.7031 921.281 37.8242 921.5 38.0664C921.719 38.3086 921.828 38.6055 921.828 38.957C921.828 39.3086 921.719 39.6016 921.5 39.8359C921.281 40.0703 920.961 40.1875 920.539 40.1875C920.117 40.1875 919.797 40.0703 919.578 39.8359C919.367 39.6016 919.262 39.3086 919.262 38.957ZM930.172 53.4648C930.945 53.4648 931.621 53.2305 932.199 52.7617C932.777 52.293 933.098 51.707 933.16 51.0039H935.211C935.172 51.7305 934.922 52.4219 934.461 53.0781C934 53.7344 933.383 54.2578 932.609 54.6484C931.844 55.0391 931.031 55.2344 930.172 55.2344C928.445 55.2344 927.07 54.6602 926.047 53.5117C925.031 52.3555 924.523 50.7773 924.523 48.7773V48.4141C924.523 47.1797 924.75 46.082 925.203 45.1211C925.656 44.1602 926.305 43.4141 927.148 42.8828C928 42.3516 929.004 42.0859 930.16 42.0859C931.582 42.0859 932.762 42.5117 933.699 43.3633C934.645 44.2148 935.148 45.3203 935.211 46.6797H933.16C933.098 45.8594 932.785 45.1875 932.223 44.6641C931.668 44.1328 930.98 43.8672 930.16 43.8672C929.059 43.8672 928.203 44.2656 927.594 45.0625C926.992 45.8516 926.691 46.9961 926.691 48.4961V48.9062C926.691 50.3672 926.992 51.4922 927.594 52.2812C928.195 53.0703 929.055 53.4648 930.172 53.4648ZM942.91 55.2344C941.191 55.2344 939.793 54.6719 938.715 53.5469C937.637 52.4141 937.098 50.9023 937.098 49.0117V48.6133C937.098 47.3555 937.336 46.2344 937.812 45.25C938.297 44.2578 938.969 43.4844 939.828 42.9297C940.695 42.3672 941.633 42.0859 942.641 42.0859C944.289 42.0859 945.57 42.6289 946.484 43.7148C947.398 44.8008 947.855 46.3555 947.855 48.3789V49.2812H939.266C939.297 50.5312 939.66 51.543 940.355 52.3164C941.059 53.082 941.949 53.4648 943.027 53.4648C943.793 53.4648 944.441 53.3086 944.973 52.9961C945.504 52.6836 945.969 52.2695 946.367 51.7539L947.691 52.7852C946.629 54.418 945.035 55.2344 942.91 55.2344ZM942.641 43.8672C941.766 43.8672 941.031 44.1875 940.438 44.8281C939.844 45.4609 939.477 46.3516 939.336 47.5H945.688V47.3359C945.625 46.2344 945.328 45.3828 944.797 44.7812C944.266 44.1719 943.547 43.8672 942.641 43.8672ZM905.469 83C905.344 82.75 905.242 82.3047 905.164 81.6641C904.156 82.7109 902.953 83.2344 901.555 83.2344C900.305 83.2344 899.277 82.8828 898.473 82.1797C897.676 81.4688 897.277 80.5703 897.277 79.4844C897.277 78.1641 897.777 77.1406 898.777 76.4141C899.785 75.6797 901.199 75.3125 903.02 75.3125H905.129V74.3164C905.129 73.5586 904.902 72.957 904.449 72.5117C903.996 72.0586 903.328 71.832 902.445 71.832C901.672 71.832 901.023 72.0273 900.5 72.418C899.977 72.8086 899.715 73.2812 899.715 73.8359H897.535C897.535 73.2031 897.758 72.5938 898.203 72.0078C898.656 71.4141 899.266 70.9453 900.031 70.6016C900.805 70.2578 901.652 70.0859 902.574 70.0859C904.035 70.0859 905.18 70.4531 906.008 71.1875C906.836 71.9141 907.266 72.918 907.297 74.1992V80.0352C907.297 81.1992 907.445 82.125 907.742 82.8125V83H905.469ZM901.871 81.3477C902.551 81.3477 903.195 81.1719 903.805 80.8203C904.414 80.4688 904.855 80.0117 905.129 79.4492V76.8477H903.43C900.773 76.8477 899.445 77.625 899.445 79.1797C899.445 79.8594 899.672 80.3906 900.125 80.7734C900.578 81.1562 901.16 81.3477 901.871 81.3477ZM921.406 76.8008C921.406 78.7305 920.965 80.2852 920.082 81.4648C919.199 82.6445 918.004 83.2344 916.496 83.2344C914.957 83.2344 913.746 82.7461 912.863 81.7695V87.875H910.695V70.3203H912.676L912.781 71.7266C913.664 70.6328 914.891 70.0859 916.461 70.0859C917.984 70.0859 919.188 70.6602 920.07 71.8086C920.961 72.957 921.406 74.5547 921.406 76.6016V76.8008ZM919.238 76.5547C919.238 75.125 918.934 73.9961 918.324 73.168C917.715 72.3398 916.879 71.9258 915.816 71.9258C914.504 71.9258 913.52 72.5078 912.863 73.6719V79.7305C913.512 80.8867 914.504 81.4648 915.84 81.4648C916.879 81.4648 917.703 81.0547 918.312 80.2344C918.93 79.4062 919.238 78.1797 919.238 76.5547ZM934.883 76.8008C934.883 78.7305 934.441 80.2852 933.559 81.4648C932.676 82.6445 931.48 83.2344 929.973 83.2344C928.434 83.2344 927.223 82.7461 926.34 81.7695V87.875H924.172V70.3203H926.152L926.258 71.7266C927.141 70.6328 928.367 70.0859 929.938 70.0859C931.461 70.0859 932.664 70.6602 933.547 71.8086C934.438 72.957 934.883 74.5547 934.883 76.6016V76.8008ZM932.715 76.5547C932.715 75.125 932.41 73.9961 931.801 73.168C931.191 72.3398 930.355 71.9258 929.293 71.9258C927.98 71.9258 926.996 72.5078 926.34 73.6719V79.7305C926.988 80.8867 927.98 81.4648 929.316 81.4648C930.355 81.4648 931.18 81.0547 931.789 80.2344C932.406 79.4062 932.715 78.1797 932.715 76.5547ZM943.777 72.2656C943.449 72.2109 943.094 72.1836 942.711 72.1836C941.289 72.1836 940.324 72.7891 939.816 74V83H937.648V70.3203H939.758L939.793 71.7852C940.504 70.6523 941.512 70.0859 942.816 70.0859C943.238 70.0859 943.559 70.1406 943.777 70.25V72.2656ZM950.809 83.2344C949.09 83.2344 947.691 82.6719 946.613 81.5469C945.535 80.4141 944.996 78.9023 944.996 77.0117V76.6133C944.996 75.3555 945.234 74.2344 945.711 73.25C946.195 72.2578 946.867 71.4844 947.727 70.9297C948.594 70.3672 949.531 70.0859 950.539 70.0859C952.188 70.0859 953.469 70.6289 954.383 71.7148C955.297 72.8008 955.754 74.3555 955.754 76.3789V77.2812H947.164C947.195 78.5312 947.559 79.543 948.254 80.3164C948.957 81.082 949.848 81.4648 950.926 81.4648C951.691 81.4648 952.34 81.3086 952.871 80.9961C953.402 80.6836 953.867 80.2695 954.266 79.7539L955.59 80.7852C954.527 82.418 952.934 83.2344 950.809 83.2344ZM950.539 71.8672C949.664 71.8672 948.93 72.1875 948.336 72.8281C947.742 73.4609 947.375 74.3516 947.234 75.5H953.586V75.3359C953.523 74.2344 953.227 73.3828 952.695 72.7812C952.164 72.1719 951.445 71.8672 950.539 71.8672ZM963.359 81.4648C964.133 81.4648 964.809 81.2305 965.387 80.7617C965.965 80.293 966.285 79.707 966.348 79.0039H968.398C968.359 79.7305 968.109 80.4219 967.648 81.0781C967.188 81.7344 966.57 82.2578 965.797 82.6484C965.031 83.0391 964.219 83.2344 963.359 83.2344C961.633 83.2344 960.258 82.6602 959.234 81.5117C958.219 80.3555 957.711 78.7773 957.711 76.7773V76.4141C957.711 75.1797 957.938 74.082 958.391 73.1211C958.844 72.1602 959.492 71.4141 960.336 70.8828C961.188 70.3516 962.191 70.0859 963.348 70.0859C964.77 70.0859 965.949 70.5117 966.887 71.3633C967.832 72.2148 968.336 73.3203 968.398 74.6797H966.348C966.285 73.8594 965.973 73.1875 965.41 72.6641C964.855 72.1328 964.168 71.8672 963.348 71.8672C962.246 71.8672 961.391 72.2656 960.781 73.0625C960.18 73.8516 959.879 74.9961 959.879 76.4961V76.9062C959.879 78.3672 960.18 79.4922 960.781 80.2812C961.383 81.0703 962.242 81.4648 963.359 81.4648ZM973.191 83H971.023V70.3203H973.191V83ZM970.848 66.957C970.848 66.6055 970.953 66.3086 971.164 66.0664C971.383 65.8242 971.703 65.7031 972.125 65.7031C972.547 65.7031 972.867 65.8242 973.086 66.0664C973.305 66.3086 973.414 66.6055 973.414 66.957C973.414 67.3086 973.305 67.6016 973.086 67.8359C972.867 68.0703 972.547 68.1875 972.125 68.1875C971.703 68.1875 971.383 68.0703 971.164 67.8359C970.953 67.6016 970.848 67.3086 970.848 66.957ZM984.5 83C984.375 82.75 984.273 82.3047 984.195 81.6641C983.188 82.7109 981.984 83.2344 980.586 83.2344C979.336 83.2344 978.309 82.8828 977.504 82.1797C976.707 81.4688 976.309 80.5703 976.309 79.4844C976.309 78.1641 976.809 77.1406 977.809 76.4141C978.816 75.6797 980.23 75.3125 982.051 75.3125H984.16V74.3164C984.16 73.5586 983.934 72.957 983.48 72.5117C983.027 72.0586 982.359 71.832 981.477 71.832C980.703 71.832 980.055 72.0273 979.531 72.418C979.008 72.8086 978.746 73.2812 978.746 73.8359H976.566C976.566 73.2031 976.789 72.5938 977.234 72.0078C977.688 71.4141 978.297 70.9453 979.062 70.6016C979.836 70.2578 980.684 70.0859 981.605 70.0859C983.066 70.0859 984.211 70.4531 985.039 71.1875C985.867 71.9141 986.297 72.918 986.328 74.1992V80.0352C986.328 81.1992 986.477 82.125 986.773 82.8125V83H984.5ZM980.902 81.3477C981.582 81.3477 982.227 81.1719 982.836 80.8203C983.445 80.4688 983.887 80.0117 984.16 79.4492V76.8477H982.461C979.805 76.8477 978.477 77.625 978.477 79.1797C978.477 79.8594 978.703 80.3906 979.156 80.7734C979.609 81.1562 980.191 81.3477 980.902 81.3477ZM992.668 67.25V70.3203H995.035V71.9961H992.668V79.8594C992.668 80.3672 992.773 80.75 992.984 81.0078C993.195 81.2578 993.555 81.3828 994.062 81.3828C994.312 81.3828 994.656 81.3359 995.094 81.2422V83C994.523 83.1562 993.969 83.2344 993.43 83.2344C992.461 83.2344 991.73 82.9414 991.238 82.3555C990.746 81.7695 990.5 80.9375 990.5 79.8594V71.9961H988.191V70.3203H990.5V67.25H992.668ZM1002.84 83.2344C1001.12 83.2344 999.723 82.6719 998.645 81.5469C997.566 80.4141 997.027 78.9023 997.027 77.0117V76.6133C997.027 75.3555 997.266 74.2344 997.742 73.25C998.227 72.2578 998.898 71.4844 999.758 70.9297C1000.62 70.3672 1001.56 70.0859 1002.57 70.0859C1004.22 70.0859 1005.5 70.6289 1006.41 71.7148C1007.33 72.8008 1007.79 74.3555 1007.79 76.3789V77.2812H999.195C999.227 78.5312 999.59 79.543 1000.29 80.3164C1000.99 81.082 1001.88 81.4648 1002.96 81.4648C1003.72 81.4648 1004.37 81.3086 1004.9 80.9961C1005.43 80.6836 1005.9 80.2695 1006.3 79.7539L1007.62 80.7852C1006.56 82.418 1004.96 83.2344 1002.84 83.2344ZM1002.57 71.8672C1001.7 71.8672 1000.96 72.1875 1000.37 72.8281C999.773 73.4609 999.406 74.3516 999.266 75.5H1005.62V75.3359C1005.55 74.2344 1005.26 73.3828 1004.73 72.7812C1004.2 72.1719 1003.48 71.8672 1002.57 71.8672ZM1017.69 79.6367C1017.69 79.0508 1017.46 78.5977 1017.02 78.2773C1016.58 77.9492 1015.81 77.668 1014.71 77.4336C1013.62 77.1992 1012.75 76.918 1012.1 76.5898C1011.46 76.2617 1010.98 75.8711 1010.67 75.418C1010.36 74.9648 1010.21 74.4258 1010.21 73.8008C1010.21 72.7617 1010.65 71.8828 1011.52 71.1641C1012.41 70.4453 1013.53 70.0859 1014.9 70.0859C1016.34 70.0859 1017.5 70.457 1018.39 71.1992C1019.29 71.9414 1019.74 72.8906 1019.74 74.0469H1017.56C1017.56 73.4531 1017.3 72.9414 1016.8 72.5117C1016.3 72.082 1015.66 71.8672 1014.9 71.8672C1014.11 71.8672 1013.49 72.0391 1013.05 72.3828C1012.6 72.7266 1012.38 73.1758 1012.38 73.7305C1012.38 74.2539 1012.59 74.6484 1013 74.9141C1013.41 75.1797 1014.16 75.4336 1015.24 75.6758C1016.32 75.918 1017.2 76.207 1017.88 76.543C1018.55 76.8789 1019.04 77.2852 1019.36 77.7617C1019.69 78.2305 1019.86 78.8047 1019.86 79.4844C1019.86 80.6172 1019.4 81.5273 1018.5 82.2148C1017.59 82.8945 1016.41 83.2344 1014.97 83.2344C1013.95 83.2344 1013.05 83.0547 1012.27 82.6953C1011.49 82.3359 1010.88 81.8359 1010.43 81.1953C1010 80.5469 1009.78 79.8477 1009.78 79.0977H1011.95C1011.98 79.8242 1012.27 80.4023 1012.81 80.832C1013.36 81.2539 1014.08 81.4648 1014.97 81.4648C1015.79 81.4648 1016.45 81.3008 1016.94 80.9727C1017.44 80.6367 1017.69 80.1914 1017.69 79.6367Z" fill="#858585"/>
<path d="M908.352 439.801C908.352 441.73 907.91 443.285 907.027 444.465C906.145 445.645 904.949 446.234 903.441 446.234C901.902 446.234 900.691 445.746 899.809 444.77V450.875H897.641V433.32H899.621L899.727 434.727C900.609 433.633 901.836 433.086 903.406 433.086C904.93 433.086 906.133 433.66 907.016 434.809C907.906 435.957 908.352 437.555 908.352 439.602V439.801ZM906.184 439.555C906.184 438.125 905.879 436.996 905.27 436.168C904.66 435.34 903.824 434.926 902.762 434.926C901.449 434.926 900.465 435.508 899.809 436.672V442.73C900.457 443.887 901.449 444.465 902.785 444.465C903.824 444.465 904.648 444.055 905.258 443.234C905.875 442.406 906.184 441.18 906.184 439.555ZM917.246 435.266C916.918 435.211 916.562 435.184 916.18 435.184C914.758 435.184 913.793 435.789 913.285 437V446H911.117V433.32H913.227L913.262 434.785C913.973 433.652 914.98 433.086 916.285 433.086C916.707 433.086 917.027 433.141 917.246 433.25V435.266ZM921.605 446H919.438V433.32H921.605V446ZM919.262 429.957C919.262 429.605 919.367 429.309 919.578 429.066C919.797 428.824 920.117 428.703 920.539 428.703C920.961 428.703 921.281 428.824 921.5 429.066C921.719 429.309 921.828 429.605 921.828 429.957C921.828 430.309 921.719 430.602 921.5 430.836C921.281 431.07 920.961 431.188 920.539 431.188C920.117 431.188 919.797 431.07 919.578 430.836C919.367 430.602 919.262 430.309 919.262 429.957ZM930.172 444.465C930.945 444.465 931.621 444.23 932.199 443.762C932.777 443.293 933.098 442.707 933.16 442.004H935.211C935.172 442.73 934.922 443.422 934.461 444.078C934 444.734 933.383 445.258 932.609 445.648C931.844 446.039 931.031 446.234 930.172 446.234C928.445 446.234 927.07 445.66 926.047 444.512C925.031 443.355 924.523 441.777 924.523 439.777V439.414C924.523 438.18 924.75 437.082 925.203 436.121C925.656 435.16 926.305 434.414 927.148 433.883C928 433.352 929.004 433.086 930.16 433.086C931.582 433.086 932.762 433.512 933.699 434.363C934.645 435.215 935.148 436.32 935.211 437.68H933.16C933.098 436.859 932.785 436.188 932.223 435.664C931.668 435.133 930.98 434.867 930.16 434.867C929.059 434.867 928.203 435.266 927.594 436.062C926.992 436.852 926.691 437.996 926.691 439.496V439.906C926.691 441.367 926.992 442.492 927.594 443.281C928.195 444.07 929.055 444.465 930.172 444.465ZM942.91 446.234C941.191 446.234 939.793 445.672 938.715 444.547C937.637 443.414 937.098 441.902 937.098 440.012V439.613C937.098 438.355 937.336 437.234 937.812 436.25C938.297 435.258 938.969 434.484 939.828 433.93C940.695 433.367 941.633 433.086 942.641 433.086C944.289 433.086 945.57 433.629 946.484 434.715C947.398 435.801 947.855 437.355 947.855 439.379V440.281H939.266C939.297 441.531 939.66 442.543 940.355 443.316C941.059 444.082 941.949 444.465 943.027 444.465C943.793 444.465 944.441 444.309 944.973 443.996C945.504 443.684 945.969 443.27 946.367 442.754L947.691 443.785C946.629 445.418 945.035 446.234 942.91 446.234ZM942.641 434.867C941.766 434.867 941.031 435.188 940.438 435.828C939.844 436.461 939.477 437.352 939.336 438.5H945.688V438.336C945.625 437.234 945.328 436.383 944.797 435.781C944.266 435.172 943.547 434.867 942.641 434.867ZM897.113 467.555C897.113 465.609 897.574 464.047 898.496 462.867C899.418 461.68 900.625 461.086 902.117 461.086C903.602 461.086 904.777 461.594 905.645 462.609V456H907.812V474H905.82L905.715 472.641C904.848 473.703 903.641 474.234 902.094 474.234C900.625 474.234 899.426 473.633 898.496 472.43C897.574 471.227 897.113 469.656 897.113 467.719V467.555ZM899.281 467.801C899.281 469.238 899.578 470.363 900.172 471.176C900.766 471.988 901.586 472.395 902.633 472.395C904.008 472.395 905.012 471.777 905.645 470.543V464.719C904.996 463.523 904 462.926 902.656 462.926C901.594 462.926 900.766 463.336 900.172 464.156C899.578 464.977 899.281 466.191 899.281 467.801ZM916.449 474.234C914.73 474.234 913.332 473.672 912.254 472.547C911.176 471.414 910.637 469.902 910.637 468.012V467.613C910.637 466.355 910.875 465.234 911.352 464.25C911.836 463.258 912.508 462.484 913.367 461.93C914.234 461.367 915.172 461.086 916.18 461.086C917.828 461.086 919.109 461.629 920.023 462.715C920.938 463.801 921.395 465.355 921.395 467.379V468.281H912.805C912.836 469.531 913.199 470.543 913.895 471.316C914.598 472.082 915.488 472.465 916.566 472.465C917.332 472.465 917.98 472.309 918.512 471.996C919.043 471.684 919.508 471.27 919.906 470.754L921.23 471.785C920.168 473.418 918.574 474.234 916.449 474.234ZM916.18 462.867C915.305 462.867 914.57 463.188 913.977 463.828C913.383 464.461 913.016 465.352 912.875 466.5H919.227V466.336C919.164 465.234 918.867 464.383 918.336 463.781C917.805 463.172 917.086 462.867 916.18 462.867ZM934.625 467.801C934.625 469.73 934.184 471.285 933.301 472.465C932.418 473.645 931.223 474.234 929.715 474.234C928.176 474.234 926.965 473.746 926.082 472.77V478.875H923.914V461.32H925.895L926 462.727C926.883 461.633 928.109 461.086 929.68 461.086C931.203 461.086 932.406 461.66 933.289 462.809C934.18 463.957 934.625 465.555 934.625 467.602V467.801ZM932.457 467.555C932.457 466.125 932.152 464.996 931.543 464.168C930.934 463.34 930.098 462.926 929.035 462.926C927.723 462.926 926.738 463.508 926.082 464.672V470.73C926.73 471.887 927.723 472.465 929.059 472.465C930.098 472.465 930.922 472.055 931.531 471.234C932.148 470.406 932.457 469.18 932.457 467.555ZM943.52 463.266C943.191 463.211 942.836 463.184 942.453 463.184C941.031 463.184 940.066 463.789 939.559 465V474H937.391V461.32H939.5L939.535 462.785C940.246 461.652 941.254 461.086 942.559 461.086C942.98 461.086 943.301 461.141 943.52 461.25V463.266ZM950.551 474.234C948.832 474.234 947.434 473.672 946.355 472.547C945.277 471.414 944.738 469.902 944.738 468.012V467.613C944.738 466.355 944.977 465.234 945.453 464.25C945.938 463.258 946.609 462.484 947.469 461.93C948.336 461.367 949.273 461.086 950.281 461.086C951.93 461.086 953.211 461.629 954.125 462.715C955.039 463.801 955.496 465.355 955.496 467.379V468.281H946.906C946.938 469.531 947.301 470.543 947.996 471.316C948.699 472.082 949.59 472.465 950.668 472.465C951.434 472.465 952.082 472.309 952.613 471.996C953.145 471.684 953.609 471.27 954.008 470.754L955.332 471.785C954.27 473.418 952.676 474.234 950.551 474.234ZM950.281 462.867C949.406 462.867 948.672 463.188 948.078 463.828C947.484 464.461 947.117 465.352 946.977 466.5H953.328V466.336C953.266 465.234 952.969 464.383 952.438 463.781C951.906 463.172 951.188 462.867 950.281 462.867ZM963.102 472.465C963.875 472.465 964.551 472.23 965.129 471.762C965.707 471.293 966.027 470.707 966.09 470.004H968.141C968.102 470.73 967.852 471.422 967.391 472.078C966.93 472.734 966.312 473.258 965.539 473.648C964.773 474.039 963.961 474.234 963.102 474.234C961.375 474.234 960 473.66 958.977 472.512C957.961 471.355 957.453 469.777 957.453 467.777V467.414C957.453 466.18 957.68 465.082 958.133 464.121C958.586 463.16 959.234 462.414 960.078 461.883C960.93 461.352 961.934 461.086 963.09 461.086C964.512 461.086 965.691 461.512 966.629 462.363C967.574 463.215 968.078 464.32 968.141 465.68H966.09C966.027 464.859 965.715 464.188 965.152 463.664C964.598 463.133 963.91 462.867 963.09 462.867C961.988 462.867 961.133 463.266 960.523 464.062C959.922 464.852 959.621 465.996 959.621 467.496V467.906C959.621 469.367 959.922 470.492 960.523 471.281C961.125 472.07 961.984 472.465 963.102 472.465ZM972.934 474H970.766V461.32H972.934V474ZM970.59 457.957C970.59 457.605 970.695 457.309 970.906 457.066C971.125 456.824 971.445 456.703 971.867 456.703C972.289 456.703 972.609 456.824 972.828 457.066C973.047 457.309 973.156 457.605 973.156 457.957C973.156 458.309 973.047 458.602 972.828 458.836C972.609 459.07 972.289 459.188 971.867 459.188C971.445 459.188 971.125 459.07 970.906 458.836C970.695 458.602 970.59 458.309 970.59 457.957ZM984.242 474C984.117 473.75 984.016 473.305 983.938 472.664C982.93 473.711 981.727 474.234 980.328 474.234C979.078 474.234 978.051 473.883 977.246 473.18C976.449 472.469 976.051 471.57 976.051 470.484C976.051 469.164 976.551 468.141 977.551 467.414C978.559 466.68 979.973 466.312 981.793 466.312H983.902V465.316C983.902 464.559 983.676 463.957 983.223 463.512C982.77 463.059 982.102 462.832 981.219 462.832C980.445 462.832 979.797 463.027 979.273 463.418C978.75 463.809 978.488 464.281 978.488 464.836H976.309C976.309 464.203 976.531 463.594 976.977 463.008C977.43 462.414 978.039 461.945 978.805 461.602C979.578 461.258 980.426 461.086 981.348 461.086C982.809 461.086 983.953 461.453 984.781 462.188C985.609 462.914 986.039 463.918 986.07 465.199V471.035C986.07 472.199 986.219 473.125 986.516 473.812V474H984.242ZM980.645 472.348C981.324 472.348 981.969 472.172 982.578 471.82C983.188 471.469 983.629 471.012 983.902 470.449V467.848H982.203C979.547 467.848 978.219 468.625 978.219 470.18C978.219 470.859 978.445 471.391 978.898 471.773C979.352 472.156 979.934 472.348 980.645 472.348ZM992.41 458.25V461.32H994.777V462.996H992.41V470.859C992.41 471.367 992.516 471.75 992.727 472.008C992.938 472.258 993.297 472.383 993.805 472.383C994.055 472.383 994.398 472.336 994.836 472.242V474C994.266 474.156 993.711 474.234 993.172 474.234C992.203 474.234 991.473 473.941 990.98 473.355C990.488 472.77 990.242 471.938 990.242 470.859V462.996H987.934V461.32H990.242V458.25H992.41ZM1002.58 474.234C1000.86 474.234 999.465 473.672 998.387 472.547C997.309 471.414 996.77 469.902 996.77 468.012V467.613C996.77 466.355 997.008 465.234 997.484 464.25C997.969 463.258 998.641 462.484 999.5 461.93C1000.37 461.367 1001.3 461.086 1002.31 461.086C1003.96 461.086 1005.24 461.629 1006.16 462.715C1007.07 463.801 1007.53 465.355 1007.53 467.379V468.281H998.938C998.969 469.531 999.332 470.543 1000.03 471.316C1000.73 472.082 1001.62 472.465 1002.7 472.465C1003.46 472.465 1004.11 472.309 1004.64 471.996C1005.18 471.684 1005.64 471.27 1006.04 470.754L1007.36 471.785C1006.3 473.418 1004.71 474.234 1002.58 474.234ZM1002.31 462.867C1001.44 462.867 1000.7 463.188 1000.11 463.828C999.516 464.461 999.148 465.352 999.008 466.5H1005.36V466.336C1005.3 465.234 1005 464.383 1004.47 463.781C1003.94 463.172 1003.22 462.867 1002.31 462.867ZM1017.43 470.637C1017.43 470.051 1017.21 469.598 1016.76 469.277C1016.32 468.949 1015.55 468.668 1014.45 468.434C1013.36 468.199 1012.49 467.918 1011.84 467.59C1011.2 467.262 1010.72 466.871 1010.41 466.418C1010.11 465.965 1009.95 465.426 1009.95 464.801C1009.95 463.762 1010.39 462.883 1011.27 462.164C1012.15 461.445 1013.27 461.086 1014.64 461.086C1016.08 461.086 1017.24 461.457 1018.13 462.199C1019.03 462.941 1019.48 463.891 1019.48 465.047H1017.3C1017.3 464.453 1017.05 463.941 1016.54 463.512C1016.04 463.082 1015.41 462.867 1014.64 462.867C1013.85 462.867 1013.23 463.039 1012.79 463.383C1012.34 463.727 1012.12 464.176 1012.12 464.73C1012.12 465.254 1012.33 465.648 1012.74 465.914C1013.16 466.18 1013.9 466.434 1014.98 466.676C1016.07 466.918 1016.95 467.207 1017.62 467.543C1018.29 467.879 1018.79 468.285 1019.11 468.762C1019.43 469.23 1019.6 469.805 1019.6 470.484C1019.6 471.617 1019.14 472.527 1018.24 473.215C1017.33 473.895 1016.16 474.234 1014.71 474.234C1013.7 474.234 1012.8 474.055 1012.02 473.695C1011.23 473.336 1010.62 472.836 1010.18 472.195C1009.74 471.547 1009.52 470.848 1009.52 470.098H1011.69C1011.73 470.824 1012.02 471.402 1012.55 471.832C1013.1 472.254 1013.82 472.465 1014.71 472.465C1015.53 472.465 1016.19 472.301 1016.68 471.973C1017.18 471.637 1017.43 471.191 1017.43 470.637Z" fill="#858585"/>
<path d="M503.066 486.282C503.066 485.04 503.309 483.923 503.793 482.931C504.285 481.938 504.965 481.173 505.832 480.634C506.707 480.095 507.703 479.825 508.82 479.825C510.547 479.825 511.941 480.423 513.004 481.618C514.074 482.813 514.609 484.403 514.609 486.388V486.54C514.609 487.774 514.371 488.884 513.895 489.868C513.426 490.845 512.75 491.606 511.867 492.153C510.992 492.7 509.984 492.974 508.844 492.974C507.125 492.974 505.73 492.376 504.66 491.181C503.598 489.985 503.066 488.403 503.066 486.435V486.282ZM505.246 486.54C505.246 487.946 505.57 489.075 506.219 489.927C506.875 490.778 507.75 491.204 508.844 491.204C509.945 491.204 510.82 490.774 511.469 489.915C512.117 489.048 512.441 487.837 512.441 486.282C512.441 484.892 512.109 483.767 511.445 482.907C510.789 482.04 509.914 481.606 508.82 481.606C507.75 481.606 506.887 482.032 506.23 482.884C505.574 483.735 505.246 484.954 505.246 486.54ZM528.039 486.54C528.039 488.47 527.598 490.024 526.715 491.204C525.832 492.384 524.637 492.974 523.129 492.974C521.59 492.974 520.379 492.485 519.496 491.509V497.614H517.328V480.06H519.309L519.414 481.466C520.297 480.372 521.523 479.825 523.094 479.825C524.617 479.825 525.82 480.399 526.703 481.548C527.594 482.696 528.039 484.294 528.039 486.341V486.54ZM525.871 486.294C525.871 484.864 525.566 483.735 524.957 482.907C524.348 482.079 523.512 481.665 522.449 481.665C521.137 481.665 520.152 482.247 519.496 483.411V489.47C520.145 490.626 521.137 491.204 522.473 491.204C523.512 491.204 524.336 490.794 524.945 489.974C525.562 489.146 525.871 487.919 525.871 486.294ZM536.066 492.974C534.348 492.974 532.949 492.411 531.871 491.286C530.793 490.153 530.254 488.642 530.254 486.751V486.353C530.254 485.095 530.492 483.974 530.969 482.989C531.453 481.997 532.125 481.224 532.984 480.669C533.852 480.106 534.789 479.825 535.797 479.825C537.445 479.825 538.727 480.368 539.641 481.454C540.555 482.54 541.012 484.095 541.012 486.118V487.021H532.422C532.453 488.271 532.816 489.282 533.512 490.056C534.215 490.821 535.105 491.204 536.184 491.204C536.949 491.204 537.598 491.048 538.129 490.735C538.66 490.423 539.125 490.009 539.523 489.493L540.848 490.524C539.785 492.157 538.191 492.974 536.066 492.974ZM535.797 481.606C534.922 481.606 534.188 481.927 533.594 482.567C533 483.2 532.633 484.091 532.492 485.239H538.844V485.075C538.781 483.974 538.484 483.122 537.953 482.521C537.422 481.911 536.703 481.606 535.797 481.606ZM545.582 480.06L545.652 481.653C546.621 480.435 547.887 479.825 549.449 479.825C552.129 479.825 553.48 481.337 553.504 484.36V492.739H551.336V484.349C551.328 483.435 551.117 482.759 550.703 482.321C550.297 481.884 549.66 481.665 548.793 481.665C548.09 481.665 547.473 481.853 546.941 482.228C546.41 482.603 545.996 483.095 545.699 483.704V492.739H543.531V480.06H545.582ZM514.352 514.54C514.352 516.47 513.91 518.024 513.027 519.204C512.145 520.384 510.949 520.974 509.441 520.974C507.902 520.974 506.691 520.485 505.809 519.509V525.614H503.641V508.06H505.621L505.727 509.466C506.609 508.372 507.836 507.825 509.406 507.825C510.93 507.825 512.133 508.399 513.016 509.548C513.906 510.696 514.352 512.294 514.352 514.341V514.54ZM512.184 514.294C512.184 512.864 511.879 511.735 511.27 510.907C510.66 510.079 509.824 509.665 508.762 509.665C507.449 509.665 506.465 510.247 505.809 511.411V517.47C506.457 518.626 507.449 519.204 508.785 519.204C509.824 519.204 510.648 518.794 511.258 517.974C511.875 517.146 512.184 515.919 512.184 514.294ZM516.543 514.282C516.543 513.04 516.785 511.923 517.27 510.931C517.762 509.938 518.441 509.173 519.309 508.634C520.184 508.095 521.18 507.825 522.297 507.825C524.023 507.825 525.418 508.423 526.48 509.618C527.551 510.813 528.086 512.403 528.086 514.388V514.54C528.086 515.774 527.848 516.884 527.371 517.868C526.902 518.845 526.227 519.606 525.344 520.153C524.469 520.7 523.461 520.974 522.32 520.974C520.602 520.974 519.207 520.376 518.137 519.181C517.074 517.985 516.543 516.403 516.543 514.435V514.282ZM518.723 514.54C518.723 515.946 519.047 517.075 519.695 517.927C520.352 518.778 521.227 519.204 522.32 519.204C523.422 519.204 524.297 518.774 524.945 517.915C525.594 517.048 525.918 515.837 525.918 514.282C525.918 512.892 525.586 511.767 524.922 510.907C524.266 510.04 523.391 509.606 522.297 509.606C521.227 509.606 520.363 510.032 519.707 510.884C519.051 511.735 518.723 512.954 518.723 514.54ZM538.188 517.376C538.188 516.79 537.965 516.337 537.52 516.017C537.082 515.688 536.312 515.407 535.211 515.173C534.117 514.938 533.246 514.657 532.598 514.329C531.957 514.001 531.48 513.61 531.168 513.157C530.863 512.704 530.711 512.165 530.711 511.54C530.711 510.501 531.148 509.622 532.023 508.903C532.906 508.185 534.031 507.825 535.398 507.825C536.836 507.825 538 508.196 538.891 508.938C539.789 509.681 540.238 510.63 540.238 511.786H538.059C538.059 511.192 537.805 510.681 537.297 510.251C536.797 509.821 536.164 509.606 535.398 509.606C534.609 509.606 533.992 509.778 533.547 510.122C533.102 510.466 532.879 510.915 532.879 511.47C532.879 511.993 533.086 512.388 533.5 512.653C533.914 512.919 534.66 513.173 535.738 513.415C536.824 513.657 537.703 513.946 538.375 514.282C539.047 514.618 539.543 515.024 539.863 515.501C540.191 515.97 540.355 516.544 540.355 517.224C540.355 518.356 539.902 519.267 538.996 519.954C538.09 520.634 536.914 520.974 535.469 520.974C534.453 520.974 533.555 520.794 532.773 520.435C531.992 520.075 531.379 519.575 530.934 518.935C530.496 518.286 530.277 517.587 530.277 516.837H532.445C532.484 517.563 532.773 518.142 533.312 518.571C533.859 518.993 534.578 519.204 535.469 519.204C536.289 519.204 536.945 519.04 537.438 518.712C537.938 518.376 538.188 517.931 538.188 517.376ZM545.535 520.739H543.367V508.06H545.535V520.739ZM543.191 504.696C543.191 504.345 543.297 504.048 543.508 503.806C543.727 503.563 544.047 503.442 544.469 503.442C544.891 503.442 545.211 503.563 545.43 503.806C545.648 504.048 545.758 504.345 545.758 504.696C545.758 505.048 545.648 505.341 545.43 505.575C545.211 505.81 544.891 505.927 544.469 505.927C544.047 505.927 543.727 505.81 543.508 505.575C543.297 505.341 543.191 505.048 543.191 504.696ZM551.957 504.989V508.06H554.324V509.735H551.957V517.599C551.957 518.106 552.062 518.489 552.273 518.747C552.484 518.997 552.844 519.122 553.352 519.122C553.602 519.122 553.945 519.075 554.383 518.981V520.739C553.812 520.896 553.258 520.974 552.719 520.974C551.75 520.974 551.02 520.681 550.527 520.095C550.035 519.509 549.789 518.677 549.789 517.599V509.735H547.48V508.06H549.789V504.989H551.957ZM559.223 520.739H557.055V508.06H559.223V520.739ZM556.879 504.696C556.879 504.345 556.984 504.048 557.195 503.806C557.414 503.563 557.734 503.442 558.156 503.442C558.578 503.442 558.898 503.563 559.117 503.806C559.336 504.048 559.445 504.345 559.445 504.696C559.445 505.048 559.336 505.341 559.117 505.575C558.898 505.81 558.578 505.927 558.156 505.927C557.734 505.927 557.414 505.81 557.195 505.575C556.984 505.341 556.879 505.048 556.879 504.696ZM562.129 514.282C562.129 513.04 562.371 511.923 562.855 510.931C563.348 509.938 564.027 509.173 564.895 508.634C565.77 508.095 566.766 507.825 567.883 507.825C569.609 507.825 571.004 508.423 572.066 509.618C573.137 510.813 573.672 512.403 573.672 514.388V514.54C573.672 515.774 573.434 516.884 572.957 517.868C572.488 518.845 571.812 519.606 570.93 520.153C570.055 520.7 569.047 520.974 567.906 520.974C566.188 520.974 564.793 520.376 563.723 519.181C562.66 517.985 562.129 516.403 562.129 514.435V514.282ZM564.309 514.54C564.309 515.946 564.633 517.075 565.281 517.927C565.938 518.778 566.812 519.204 567.906 519.204C569.008 519.204 569.883 518.774 570.531 517.915C571.18 517.048 571.504 515.837 571.504 514.282C571.504 512.892 571.172 511.767 570.508 510.907C569.852 510.04 568.977 509.606 567.883 509.606C566.812 509.606 565.949 510.032 565.293 510.884C564.637 511.735 564.309 512.954 564.309 514.54ZM578.441 508.06L578.512 509.653C579.48 508.435 580.746 507.825 582.309 507.825C584.988 507.825 586.34 509.337 586.363 512.36V520.739H584.195V512.349C584.188 511.435 583.977 510.759 583.562 510.321C583.156 509.884 582.52 509.665 581.652 509.665C580.949 509.665 580.332 509.853 579.801 510.228C579.27 510.603 578.855 511.095 578.559 511.704V520.739H576.391V508.06H578.441Z" fill="#858585"/>
<path d="M819.586 491.204C820.359 491.204 821.035 490.97 821.613 490.501C822.191 490.032 822.512 489.446 822.574 488.743H824.625C824.586 489.47 824.336 490.161 823.875 490.817C823.414 491.474 822.797 491.997 822.023 492.388C821.258 492.778 820.445 492.974 819.586 492.974C817.859 492.974 816.484 492.399 815.461 491.251C814.445 490.095 813.938 488.517 813.938 486.517V486.153C813.938 484.919 814.164 483.821 814.617 482.86C815.07 481.899 815.719 481.153 816.562 480.622C817.414 480.091 818.418 479.825 819.574 479.825C820.996 479.825 822.176 480.251 823.113 481.103C824.059 481.954 824.562 483.06 824.625 484.419H822.574C822.512 483.599 822.199 482.927 821.637 482.403C821.082 481.872 820.395 481.606 819.574 481.606C818.473 481.606 817.617 482.005 817.008 482.802C816.406 483.591 816.105 484.735 816.105 486.235V486.646C816.105 488.106 816.406 489.231 817.008 490.021C817.609 490.81 818.469 491.204 819.586 491.204ZM829.418 492.739H827.25V474.739H829.418V492.739ZM832.324 486.282C832.324 485.04 832.566 483.923 833.051 482.931C833.543 481.938 834.223 481.173 835.09 480.634C835.965 480.095 836.961 479.825 838.078 479.825C839.805 479.825 841.199 480.423 842.262 481.618C843.332 482.813 843.867 484.403 843.867 486.388V486.54C843.867 487.774 843.629 488.884 843.152 489.868C842.684 490.845 842.008 491.606 841.125 492.153C840.25 492.7 839.242 492.974 838.102 492.974C836.383 492.974 834.988 492.376 833.918 491.181C832.855 489.985 832.324 488.403 832.324 486.435V486.282ZM834.504 486.54C834.504 487.946 834.828 489.075 835.477 489.927C836.133 490.778 837.008 491.204 838.102 491.204C839.203 491.204 840.078 490.774 840.727 489.915C841.375 489.048 841.699 487.837 841.699 486.282C841.699 484.892 841.367 483.767 840.703 482.907C840.047 482.04 839.172 481.606 838.078 481.606C837.008 481.606 836.145 482.032 835.488 482.884C834.832 483.735 834.504 484.954 834.504 486.54ZM853.969 489.376C853.969 488.79 853.746 488.337 853.301 488.017C852.863 487.688 852.094 487.407 850.992 487.173C849.898 486.938 849.027 486.657 848.379 486.329C847.738 486.001 847.262 485.61 846.949 485.157C846.645 484.704 846.492 484.165 846.492 483.54C846.492 482.501 846.93 481.622 847.805 480.903C848.688 480.185 849.812 479.825 851.18 479.825C852.617 479.825 853.781 480.196 854.672 480.938C855.57 481.681 856.02 482.63 856.02 483.786H853.84C853.84 483.192 853.586 482.681 853.078 482.251C852.578 481.821 851.945 481.606 851.18 481.606C850.391 481.606 849.773 481.778 849.328 482.122C848.883 482.466 848.66 482.915 848.66 483.47C848.66 483.993 848.867 484.388 849.281 484.653C849.695 484.919 850.441 485.173 851.52 485.415C852.605 485.657 853.484 485.946 854.156 486.282C854.828 486.618 855.324 487.024 855.645 487.501C855.973 487.97 856.137 488.544 856.137 489.224C856.137 490.356 855.684 491.267 854.777 491.954C853.871 492.634 852.695 492.974 851.25 492.974C850.234 492.974 849.336 492.794 848.555 492.435C847.773 492.075 847.16 491.575 846.715 490.935C846.277 490.286 846.059 489.587 846.059 488.837H848.227C848.266 489.563 848.555 490.142 849.094 490.571C849.641 490.993 850.359 491.204 851.25 491.204C852.07 491.204 852.727 491.04 853.219 490.712C853.719 490.376 853.969 489.931 853.969 489.376ZM864.223 492.974C862.504 492.974 861.105 492.411 860.027 491.286C858.949 490.153 858.41 488.642 858.41 486.751V486.353C858.41 485.095 858.648 483.974 859.125 482.989C859.609 481.997 860.281 481.224 861.141 480.669C862.008 480.106 862.945 479.825 863.953 479.825C865.602 479.825 866.883 480.368 867.797 481.454C868.711 482.54 869.168 484.095 869.168 486.118V487.021H860.578C860.609 488.271 860.973 489.282 861.668 490.056C862.371 490.821 863.262 491.204 864.34 491.204C865.105 491.204 865.754 491.048 866.285 490.735C866.816 490.423 867.281 490.009 867.68 489.493L869.004 490.524C867.941 492.157 866.348 492.974 864.223 492.974ZM863.953 481.606C863.078 481.606 862.344 481.927 861.75 482.567C861.156 483.2 860.789 484.091 860.648 485.239H867V485.075C866.938 483.974 866.641 483.122 866.109 482.521C865.578 481.911 864.859 481.606 863.953 481.606ZM802.359 514.54C802.359 516.47 801.918 518.024 801.035 519.204C800.152 520.384 798.957 520.974 797.449 520.974C795.91 520.974 794.699 520.485 793.816 519.509V525.614H791.648V508.06H793.629L793.734 509.466C794.617 508.372 795.844 507.825 797.414 507.825C798.938 507.825 800.141 508.399 801.023 509.548C801.914 510.696 802.359 512.294 802.359 514.341V514.54ZM800.191 514.294C800.191 512.864 799.887 511.735 799.277 510.907C798.668 510.079 797.832 509.665 796.77 509.665C795.457 509.665 794.473 510.247 793.816 511.411V517.47C794.465 518.626 795.457 519.204 796.793 519.204C797.832 519.204 798.656 518.794 799.266 517.974C799.883 517.146 800.191 515.919 800.191 514.294ZM804.551 514.282C804.551 513.04 804.793 511.923 805.277 510.931C805.77 509.938 806.449 509.173 807.316 508.634C808.191 508.095 809.188 507.825 810.305 507.825C812.031 507.825 813.426 508.423 814.488 509.618C815.559 510.813 816.094 512.403 816.094 514.388V514.54C816.094 515.774 815.855 516.884 815.379 517.868C814.91 518.845 814.234 519.606 813.352 520.153C812.477 520.7 811.469 520.974 810.328 520.974C808.609 520.974 807.215 520.376 806.145 519.181C805.082 517.985 804.551 516.403 804.551 514.435V514.282ZM806.73 514.54C806.73 515.946 807.055 517.075 807.703 517.927C808.359 518.778 809.234 519.204 810.328 519.204C811.43 519.204 812.305 518.774 812.953 517.915C813.602 517.048 813.926 515.837 813.926 514.282C813.926 512.892 813.594 511.767 812.93 510.907C812.273 510.04 811.398 509.606 810.305 509.606C809.234 509.606 808.371 510.032 807.715 510.884C807.059 511.735 806.73 512.954 806.73 514.54ZM826.195 517.376C826.195 516.79 825.973 516.337 825.527 516.017C825.09 515.688 824.32 515.407 823.219 515.173C822.125 514.938 821.254 514.657 820.605 514.329C819.965 514.001 819.488 513.61 819.176 513.157C818.871 512.704 818.719 512.165 818.719 511.54C818.719 510.501 819.156 509.622 820.031 508.903C820.914 508.185 822.039 507.825 823.406 507.825C824.844 507.825 826.008 508.196 826.898 508.938C827.797 509.681 828.246 510.63 828.246 511.786H826.066C826.066 511.192 825.812 510.681 825.305 510.251C824.805 509.821 824.172 509.606 823.406 509.606C822.617 509.606 822 509.778 821.555 510.122C821.109 510.466 820.887 510.915 820.887 511.47C820.887 511.993 821.094 512.388 821.508 512.653C821.922 512.919 822.668 513.173 823.746 513.415C824.832 513.657 825.711 513.946 826.383 514.282C827.055 514.618 827.551 515.024 827.871 515.501C828.199 515.97 828.363 516.544 828.363 517.224C828.363 518.356 827.91 519.267 827.004 519.954C826.098 520.634 824.922 520.974 823.477 520.974C822.461 520.974 821.562 520.794 820.781 520.435C820 520.075 819.387 519.575 818.941 518.935C818.504 518.286 818.285 517.587 818.285 516.837H820.453C820.492 517.563 820.781 518.142 821.32 518.571C821.867 518.993 822.586 519.204 823.477 519.204C824.297 519.204 824.953 519.04 825.445 518.712C825.945 518.376 826.195 517.931 826.195 517.376ZM833.543 520.739H831.375V508.06H833.543V520.739ZM831.199 504.696C831.199 504.345 831.305 504.048 831.516 503.806C831.734 503.563 832.055 503.442 832.477 503.442C832.898 503.442 833.219 503.563 833.438 503.806C833.656 504.048 833.766 504.345 833.766 504.696C833.766 505.048 833.656 505.341 833.438 505.575C833.219 505.81 832.898 505.927 832.477 505.927C832.055 505.927 831.734 505.81 831.516 505.575C831.305 505.341 831.199 505.048 831.199 504.696ZM839.965 504.989V508.06H842.332V509.735H839.965V517.599C839.965 518.106 840.07 518.489 840.281 518.747C840.492 518.997 840.852 519.122 841.359 519.122C841.609 519.122 841.953 519.075 842.391 518.981V520.739C841.82 520.896 841.266 520.974 840.727 520.974C839.758 520.974 839.027 520.681 838.535 520.095C838.043 519.509 837.797 518.677 837.797 517.599V509.735H835.488V508.06H837.797V504.989H839.965ZM847.23 520.739H845.062V508.06H847.23V520.739ZM844.887 504.696C844.887 504.345 844.992 504.048 845.203 503.806C845.422 503.563 845.742 503.442 846.164 503.442C846.586 503.442 846.906 503.563 847.125 503.806C847.344 504.048 847.453 504.345 847.453 504.696C847.453 505.048 847.344 505.341 847.125 505.575C846.906 505.81 846.586 505.927 846.164 505.927C845.742 505.927 845.422 505.81 845.203 505.575C844.992 505.341 844.887 505.048 844.887 504.696ZM850.137 514.282C850.137 513.04 850.379 511.923 850.863 510.931C851.355 509.938 852.035 509.173 852.902 508.634C853.777 508.095 854.773 507.825 855.891 507.825C857.617 507.825 859.012 508.423 860.074 509.618C861.145 510.813 861.68 512.403 861.68 514.388V514.54C861.68 515.774 861.441 516.884 860.965 517.868C860.496 518.845 859.82 519.606 858.938 520.153C858.062 520.7 857.055 520.974 855.914 520.974C854.195 520.974 852.801 520.376 851.73 519.181C850.668 517.985 850.137 516.403 850.137 514.435V514.282ZM852.316 514.54C852.316 515.946 852.641 517.075 853.289 517.927C853.945 518.778 854.82 519.204 855.914 519.204C857.016 519.204 857.891 518.774 858.539 517.915C859.188 517.048 859.512 515.837 859.512 514.282C859.512 512.892 859.18 511.767 858.516 510.907C857.859 510.04 856.984 509.606 855.891 509.606C854.82 509.606 853.957 510.032 853.301 510.884C852.645 511.735 852.316 512.954 852.316 514.54ZM866.449 508.06L866.52 509.653C867.488 508.435 868.754 507.825 870.316 507.825C872.996 507.825 874.348 509.337 874.371 512.36V520.739H872.203V512.349C872.195 511.435 871.984 510.759 871.57 510.321C871.164 509.884 870.527 509.665 869.66 509.665C868.957 509.665 868.34 509.853 867.809 510.228C867.277 510.603 866.863 511.095 866.566 511.704V520.739H864.398V508.06H866.449Z" fill="#858585"/>
<defs>
<linearGradient id="paint0_linear_118_506" x1="255.782" y1="350.836" x2="255.782" y2="579.235" gradientUnits="userSpaceOnUse">
<stop offset="0.338542" stop-color="#F7931A" stop-opacity="0.69"/>
<stop offset="1" stop-color="#EEFEF2" stop-opacity="0"/>
</linearGradient>
</defs>
</svg>
